<svg width="36" height="36" viewBox="0 0 36 36" fill="none" xmlns="http://www.w3.org/2000/svg">
<path d="M6.558 10.896C6.57638 10.7134 6.55176 10.529 6.48613 10.3576C6.42049 10.1863 6.31565 10.0326 6.18 9.909L3.378 6.5085V6H12.075L18.798 20.8575L24.708 6H33V6.5085L30.6045 8.82C30.503 8.89837 30.4247 9.00284 30.3779 9.12225C30.3312 9.24167 30.3177 9.37154 30.339 9.498V26.499C30.3177 26.6255 30.3312 26.7553 30.3779 26.8747C30.4247 26.9942 30.503 27.0986 30.6045 27.177L32.9445 29.49V30H21.1785V29.4915L23.6025 27.1215C23.841 26.8815 23.841 26.811 23.841 26.445V12.702L17.103 29.943H16.194L8.349 12.702V24.258C8.2845 24.7425 8.445 25.233 8.784 25.584L11.9355 29.436V29.943H3V29.436L6.15 25.584C6.31667 25.4101 6.44036 25.1996 6.5112 24.9694C6.58205 24.7391 6.59807 24.4955 6.558 24.258V10.896Z" fill="#353636"/>
</svg>
