<svg width="36" height="36" viewBox="0 0 36 36" fill="none" xmlns="http://www.w3.org/2000/svg">
<path d="M32.625 8.94028C31.5492 9.40434 30.3785 9.73833 29.1727 9.8684C30.4246 9.12462 31.3622 7.94957 31.8094 6.56372C30.6346 7.26258 29.3476 7.75264 28.0055 8.01215C27.4445 7.41248 26.7661 6.93476 26.0125 6.60874C25.2588 6.28273 24.4461 6.11542 23.625 6.11723C20.3027 6.11723 17.6309 8.8102 17.6309 12.1149C17.6309 12.579 17.6871 13.043 17.7785 13.4895C12.8039 13.2293 8.36719 10.8528 5.41758 7.21411C4.88013 8.13209 4.59849 9.17732 4.60196 10.2411C4.60196 12.3223 5.66016 14.1575 7.27383 15.2368C6.32287 15.1993 5.39418 14.9379 4.56329 14.4739V14.5477C4.56329 17.4622 6.62344 19.8774 9.36915 20.4329C8.85361 20.5668 8.32327 20.6353 7.79063 20.6368C7.4004 20.6368 7.03126 20.5981 6.6586 20.5454C7.41797 22.9219 9.6293 24.6481 12.2625 24.7043C10.2023 26.318 7.62188 27.2672 4.81993 27.2672C4.31719 27.2672 3.85313 27.2497 3.37149 27.1934C6.0293 28.8985 9.18282 29.8829 12.5789 29.8829C23.6039 29.8829 29.6367 20.7493 29.6367 12.8215C29.6367 12.5614 29.6367 12.3012 29.6191 12.0411C30.7863 11.1868 31.8094 10.1286 32.625 8.94028Z" fill="#353636"/>
</svg>
