<svg width="36" height="36" viewBox="0 0 36 36" fill="none" xmlns="http://www.w3.org/2000/svg">
<path d="M7.4745 10.7955C9.2871 10.7955 10.7565 9.32614 10.7565 7.51354C10.7565 5.70094 9.2871 4.23154 7.4745 4.23154C5.66191 4.23154 4.1925 5.70094 4.1925 7.51354C4.1925 9.32614 5.66191 10.7955 7.4745 10.7955Z" fill="#353636"/>
<path d="M13.8555 13.2825V31.4911H19.509V22.4866C19.509 20.1106 19.956 17.8096 22.902 17.8096C25.8075 17.8096 25.8435 20.526 25.8435 22.6365V31.4926H31.5V21.5071C31.5 16.6021 30.444 12.8326 24.711 12.8326C21.9585 12.8326 20.1135 14.3431 19.359 15.7726H19.2825V13.2825H13.8555ZM4.64252 13.2825H10.305V31.4911H4.64252V13.2825Z" fill="#353636"/>
</svg>
