<svg width="981" height="93" viewBox="0 0 981 93" fill="none" xmlns="http://www.w3.org/2000/svg">
<path d="M0.453125 47.2188C0.453125 39.4375 2.29688 33.1875 5.98438 28.4688C9.67188 23.7188 14.5 21.3438 20.4688 21.3438C26.4062 21.3438 31.1094 23.375 34.5781 27.4375V1H43.25V73H35.2812L34.8594 67.5625C31.3906 71.8125 26.5625 73.9375 20.375 73.9375C14.5 73.9375 9.70312 71.5312 5.98438 66.7188C2.29688 61.9062 0.453125 55.625 0.453125 47.875V47.2188ZM9.125 48.2031C9.125 53.9531 10.3125 58.4531 12.6875 61.7031C15.0625 64.9531 18.3438 66.5781 22.5312 66.5781C28.0312 66.5781 32.0469 64.1094 34.5781 59.1719V35.875C31.9844 31.0938 28 28.7031 22.625 28.7031C18.375 28.7031 15.0625 30.3438 12.6875 33.625C10.3125 36.9062 9.125 41.7656 9.125 48.2031ZM54.4531 47.1719C54.4531 42.2031 55.4219 37.7344 57.3594 33.7656C59.3281 29.7969 62.0469 26.7344 65.5156 24.5781C69.0156 22.4219 73 21.3438 77.4688 21.3438C84.375 21.3438 89.9531 23.7344 94.2031 28.5156C98.4844 33.2969 100.625 39.6562 100.625 47.5938V48.2031C100.625 53.1406 99.6719 57.5781 97.7656 61.5156C95.8906 65.4219 93.1875 68.4688 89.6562 70.6562C86.1562 72.8438 82.125 73.9375 77.5625 73.9375C70.6875 73.9375 65.1094 71.5469 60.8281 66.7656C56.5781 61.9844 54.4531 55.6562 54.4531 47.7812V47.1719ZM63.1719 48.2031C63.1719 53.8281 64.4688 58.3438 67.0625 61.75C69.6875 65.1562 73.1875 66.8594 77.5625 66.8594C81.9688 66.8594 85.4688 65.1406 88.0625 61.7031C90.6562 58.2344 91.9531 53.3906 91.9531 47.1719C91.9531 41.6094 90.625 37.1094 87.9688 33.6719C85.3438 30.2031 81.8438 28.4688 77.4688 28.4688C73.1875 28.4688 69.7344 30.1719 67.1094 33.5781C64.4844 36.9844 63.1719 41.8594 63.1719 48.2031ZM119.703 22.2812L119.984 28.6562C123.859 23.7812 128.922 21.3438 135.172 21.3438C145.891 21.3438 151.297 27.3906 151.391 39.4844V73H142.719V39.4375C142.688 35.7812 141.844 33.0781 140.188 31.3281C138.562 29.5781 136.016 28.7031 132.547 28.7031C129.734 28.7031 127.266 29.4531 125.141 30.9531C123.016 32.4531 121.359 34.4219 120.172 36.8594V73H111.5V22.2812H119.703ZM195.781 73C195.281 72 194.875 70.2188 194.562 67.6562C190.531 71.8438 185.719 73.9375 180.125 73.9375C175.125 73.9375 171.016 72.5312 167.797 69.7188C164.609 66.875 163.016 63.2812 163.016 58.9375C163.016 53.6562 165.016 49.5625 169.016 46.6562C173.047 43.7188 178.703 42.25 185.984 42.25H194.422V38.2656C194.422 35.2344 193.516 32.8281 191.703 31.0469C189.891 29.2344 187.219 28.3281 183.688 28.3281C180.594 28.3281 178 29.1094 175.906 30.6719C173.812 32.2344 172.766 34.125 172.766 36.3438H164.047C164.047 33.8125 164.938 31.375 166.719 29.0312C168.531 26.6562 170.969 24.7812 174.031 23.4062C177.125 22.0312 180.516 21.3438 184.203 21.3438C190.047 21.3438 194.625 22.8125 197.938 25.75C201.25 28.6562 202.969 32.6719 203.094 37.7969V61.1406C203.094 65.7969 203.688 69.5 204.875 72.25V73H195.781ZM181.391 66.3906C184.109 66.3906 186.688 65.6875 189.125 64.2812C191.562 62.875 193.328 61.0469 194.422 58.7969V48.3906H187.625C177 48.3906 171.688 51.5 171.688 57.7188C171.688 60.4375 172.594 62.5625 174.406 64.0938C176.219 65.625 178.547 66.3906 181.391 66.3906ZM226.109 73H217.438V1H226.109V73ZM237.922 47.2188C237.922 39.4375 239.766 33.1875 243.453 28.4688C247.141 23.7188 251.969 21.3438 257.938 21.3438C263.875 21.3438 268.578 23.375 272.047 27.4375V1H280.719V73H272.75L272.328 67.5625C268.859 71.8125 264.031 73.9375 257.844 73.9375C251.969 73.9375 247.172 71.5312 243.453 66.7188C239.766 61.9062 237.922 55.625 237.922 47.875V47.2188ZM246.594 48.2031C246.594 53.9531 247.781 58.4531 250.156 61.7031C252.531 64.9531 255.812 66.5781 260 66.5781C265.5 66.5781 269.516 64.1094 272.047 59.1719V35.875C269.453 31.0938 265.469 28.7031 260.094 28.7031C255.844 28.7031 252.531 30.3438 250.156 33.625C247.781 36.9062 246.594 41.7656 246.594 48.2031ZM324.125 0.109375L329.094 3.48438C326.188 7.45313 324.688 11.7344 324.594 16.3281V22.7031H315.969V17.2656C315.969 14.0781 316.719 10.9219 318.219 7.79688C319.75 4.67187 321.719 2.10938 324.125 0.109375ZM332.047 47.1719C332.047 42.2031 333.016 37.7344 334.953 33.7656C336.922 29.7969 339.641 26.7344 343.109 24.5781C346.609 22.4219 350.594 21.3438 355.062 21.3438C361.969 21.3438 367.547 23.7344 371.797 28.5156C376.078 33.2969 378.219 39.6562 378.219 47.5938V48.2031C378.219 53.1406 377.266 57.5781 375.359 61.5156C373.484 65.4219 370.781 68.4688 367.25 70.6562C363.75 72.8438 359.719 73.9375 355.156 73.9375C348.281 73.9375 342.703 71.5469 338.422 66.7656C334.172 61.9844 332.047 55.6562 332.047 47.7812V47.1719ZM340.766 48.2031C340.766 53.8281 342.062 58.3438 344.656 61.75C347.281 65.1562 350.781 66.8594 355.156 66.8594C359.562 66.8594 363.062 65.1406 365.656 61.7031C368.25 58.2344 369.547 53.3906 369.547 47.1719C369.547 41.6094 368.219 37.1094 365.562 33.6719C362.938 30.2031 359.438 28.4688 355.062 28.4688C350.781 28.4688 347.328 30.1719 344.703 33.5781C342.078 36.9844 340.766 41.8594 340.766 48.2031ZM386.984 47.2188C386.984 39.4375 388.828 33.1875 392.516 28.4688C396.203 23.7188 401.031 21.3438 407 21.3438C412.938 21.3438 417.641 23.375 421.109 27.4375V1H429.781V73H421.812L421.391 67.5625C417.922 71.8125 413.094 73.9375 406.906 73.9375C401.031 73.9375 396.234 71.5312 392.516 66.7188C388.828 61.9062 386.984 55.625 386.984 47.875V47.2188ZM395.656 48.2031C395.656 53.9531 396.844 58.4531 399.219 61.7031C401.594 64.9531 404.875 66.5781 409.062 66.5781C414.562 66.5781 418.578 64.1094 421.109 59.1719V35.875C418.516 31.0938 414.531 28.7031 409.156 28.7031C404.906 28.7031 401.594 30.3438 399.219 33.625C396.844 36.9062 395.656 41.7656 395.656 48.2031ZM464.328 73.9375C457.453 73.9375 451.859 71.6875 447.547 67.1875C443.234 62.6562 441.078 56.6094 441.078 49.0469V47.4531C441.078 42.4219 442.031 37.9375 443.938 34C445.875 30.0312 448.562 26.9375 452 24.7188C455.469 22.4688 459.219 21.3438 463.25 21.3438C469.844 21.3438 474.969 23.5156 478.625 27.8594C482.281 32.2031 484.109 38.4219 484.109 46.5156V50.125H449.75C449.875 55.125 451.328 59.1719 454.109 62.2656C456.922 65.3281 460.484 66.8594 464.797 66.8594C467.859 66.8594 470.453 66.2344 472.578 64.9844C474.703 63.7344 476.562 62.0781 478.156 60.0156L483.453 64.1406C479.203 70.6719 472.828 73.9375 464.328 73.9375ZM463.25 28.4688C459.75 28.4688 456.812 29.75 454.438 32.3125C452.062 34.8438 450.594 38.4062 450.031 43H475.438V42.3438C475.188 37.9375 474 34.5312 471.875 32.125C469.75 29.6875 466.875 28.4688 463.25 28.4688ZM518.703 30.0625C517.391 29.8438 515.969 29.7344 514.438 29.7344C508.75 29.7344 504.891 32.1562 502.859 37V73H494.188V22.2812H502.625L502.766 28.1406C505.609 23.6094 509.641 21.3438 514.859 21.3438C516.547 21.3438 517.828 21.5625 518.703 22V30.0625ZM556.156 73C555.656 72 555.25 70.2188 554.938 67.6562C550.906 71.8438 546.094 73.9375 540.5 73.9375C535.5 73.9375 531.391 72.5312 528.172 69.7188C524.984 66.875 523.391 63.2812 523.391 58.9375C523.391 53.6562 525.391 49.5625 529.391 46.6562C533.422 43.7188 539.078 42.25 546.359 42.25H554.797V38.2656C554.797 35.2344 553.891 32.8281 552.078 31.0469C550.266 29.2344 547.594 28.3281 544.062 28.3281C540.969 28.3281 538.375 29.1094 536.281 30.6719C534.188 32.2344 533.141 34.125 533.141 36.3438H524.422C524.422 33.8125 525.312 31.375 527.094 29.0312C528.906 26.6562 531.344 24.7812 534.406 23.4062C537.5 22.0312 540.891 21.3438 544.578 21.3438C550.422 21.3438 555 22.8125 558.312 25.75C561.625 28.6562 563.344 32.6719 563.469 37.7969V61.1406C563.469 65.7969 564.062 69.5 565.25 72.25V73H556.156ZM541.766 66.3906C544.484 66.3906 547.062 65.6875 549.5 64.2812C551.938 62.875 553.703 61.0469 554.797 58.7969V48.3906H548C537.375 48.3906 532.062 51.5 532.062 57.7188C532.062 60.4375 532.969 62.5625 534.781 64.0938C536.594 65.625 538.922 66.3906 541.766 66.3906ZM574.484 23.9688L569.562 20.5938C572.469 16.5312 573.969 12.25 574.062 7.75V1H582.641V7.09375C582.609 10.2188 581.828 13.3437 580.297 16.4688C578.797 19.5625 576.859 22.0625 574.484 23.9688ZM648.219 67.9844C644.844 71.9531 639.891 73.9375 633.359 73.9375C627.953 73.9375 623.828 72.375 620.984 69.25C618.172 66.0938 616.75 61.4375 616.719 55.2812V22.2812H625.391V55.0469C625.391 62.7344 628.516 66.5781 634.766 66.5781C641.391 66.5781 645.797 64.1094 647.984 59.1719V22.2812H656.656V73H648.406L648.219 67.9844ZM667.812 47.2188C667.812 39.3125 669.641 33.0312 673.297 28.375C676.953 23.6875 681.797 21.3438 687.828 21.3438C694.016 21.3438 698.844 23.5312 702.312 27.9062L702.734 22.2812H710.656V71.7812C710.656 78.3438 708.703 83.5156 704.797 87.2969C700.922 91.0781 695.703 92.9688 689.141 92.9688C685.484 92.9688 681.906 92.1875 678.406 90.625C674.906 89.0625 672.234 86.9219 670.391 84.2031L674.891 79C678.609 83.5938 683.156 85.8906 688.531 85.8906C692.75 85.8906 696.031 84.7031 698.375 82.3281C700.75 79.9531 701.938 76.6094 701.938 72.2969V67.9375C698.469 71.9375 693.734 73.9375 687.734 73.9375C681.797 73.9375 676.984 71.5469 673.297 66.7656C669.641 61.9844 667.812 55.4688 667.812 47.2188ZM676.531 48.2031C676.531 53.9219 677.703 58.4219 680.047 61.7031C682.391 64.9531 685.672 66.5781 689.891 66.5781C695.359 66.5781 699.375 64.0938 701.938 59.125V35.9688C699.281 31.125 695.297 28.7031 689.984 28.7031C685.766 28.7031 682.469 30.3438 680.094 33.625C677.719 36.9062 676.531 41.7656 676.531 48.2031ZM721.484 47.1719C721.484 42.2031 722.453 37.7344 724.391 33.7656C726.359 29.7969 729.078 26.7344 732.547 24.5781C736.047 22.4219 740.031 21.3438 744.5 21.3438C751.406 21.3438 756.984 23.7344 761.234 28.5156C765.516 33.2969 767.656 39.6562 767.656 47.5938V48.2031C767.656 53.1406 766.703 57.5781 764.797 61.5156C762.922 65.4219 760.219 68.4688 756.688 70.6562C753.188 72.8438 749.156 73.9375 744.594 73.9375C737.719 73.9375 732.141 71.5469 727.859 66.7656C723.609 61.9844 721.484 55.6562 721.484 47.7812V47.1719ZM730.203 48.2031C730.203 53.8281 731.5 58.3438 734.094 61.75C736.719 65.1562 740.219 66.8594 744.594 66.8594C749 66.8594 752.5 65.1406 755.094 61.7031C757.688 58.2344 758.984 53.3906 758.984 47.1719C758.984 41.6094 757.656 37.1094 755 33.6719C752.375 30.2031 748.875 28.4688 744.5 28.4688C740.219 28.4688 736.766 30.1719 734.141 33.5781C731.516 36.9844 730.203 41.8594 730.203 48.2031ZM821.469 48.2031C821.469 55.9531 819.688 62.1875 816.125 66.9062C812.562 71.5938 807.781 73.9375 801.781 73.9375C795.375 73.9375 790.422 71.6719 786.922 67.1406L786.5 73H778.531V1H787.203V27.8594C790.703 23.5156 795.531 21.3438 801.688 21.3438C807.844 21.3438 812.672 23.6719 816.172 28.3281C819.703 32.9844 821.469 39.3594 821.469 47.4531V48.2031ZM812.797 47.2188C812.797 41.3125 811.656 36.75 809.375 33.5312C807.094 30.3125 803.812 28.7031 799.531 28.7031C793.812 28.7031 789.703 31.3594 787.203 36.6719V58.6094C789.859 63.9219 794 66.5781 799.625 66.5781C803.781 66.5781 807.016 64.9688 809.328 61.75C811.641 58.5312 812.797 53.6875 812.797 47.2188ZM863.75 67.9844C860.375 71.9531 855.422 73.9375 848.891 73.9375C843.484 73.9375 839.359 72.375 836.516 69.25C833.703 66.0938 832.281 61.4375 832.25 55.2812V22.2812H840.922V55.0469C840.922 62.7344 844.047 66.5781 850.297 66.5781C856.922 66.5781 861.328 64.1094 863.516 59.1719V22.2812H872.188V73H863.938L863.75 67.9844ZM883.297 47.2188C883.297 39.4375 885.141 33.1875 888.828 28.4688C892.516 23.7188 897.344 21.3438 903.312 21.3438C909.25 21.3438 913.953 23.375 917.422 27.4375V1H926.094V73H918.125L917.703 67.5625C914.234 71.8125 909.406 73.9375 903.219 73.9375C897.344 73.9375 892.547 71.5312 888.828 66.7188C885.141 61.9062 883.297 55.625 883.297 47.875V47.2188ZM891.969 48.2031C891.969 53.9531 893.156 58.4531 895.531 61.7031C897.906 64.9531 901.188 66.5781 905.375 66.5781C910.875 66.5781 914.891 64.1094 917.422 59.1719V35.875C914.828 31.0938 910.844 28.7031 905.469 28.7031C901.219 28.7031 897.906 30.3438 895.531 33.625C893.156 36.9062 891.969 41.7656 891.969 48.2031ZM960.641 73.9375C953.766 73.9375 948.172 71.6875 943.859 67.1875C939.547 62.6562 937.391 56.6094 937.391 49.0469V47.4531C937.391 42.4219 938.344 37.9375 940.25 34C942.188 30.0312 944.875 26.9375 948.312 24.7188C951.781 22.4688 955.531 21.3438 959.562 21.3438C966.156 21.3438 971.281 23.5156 974.938 27.8594C978.594 32.2031 980.422 38.4219 980.422 46.5156V50.125H946.062C946.188 55.125 947.641 59.1719 950.422 62.2656C953.234 65.3281 956.797 66.8594 961.109 66.8594C964.172 66.8594 966.766 66.2344 968.891 64.9844C971.016 63.7344 972.875 62.0781 974.469 60.0156L979.766 64.1406C975.516 70.6719 969.141 73.9375 960.641 73.9375ZM959.562 28.4688C956.062 28.4688 953.125 29.75 950.75 32.3125C948.375 34.8438 946.906 38.4062 946.344 43H971.75V42.3438C971.5 37.9375 970.312 34.5312 968.188 32.125C966.062 29.6875 963.188 28.4688 959.562 28.4688Z" fill="#04091D"/>
<path d="M5.98438 28.4688L6.77232 29.0845L6.77429 29.082L5.98438 28.4688ZM34.5781 27.4375L33.8176 28.0868L35.5781 30.1487V27.4375H34.5781ZM34.5781 1V0H33.5781V1H34.5781ZM43.25 1H44.25V0H43.25V1ZM43.25 73V74H44.25V73H43.25ZM35.2812 73L34.2842 73.0774L34.3558 74H35.2812V73ZM34.8594 67.5625L35.8564 67.4851L35.6633 64.996L34.0847 66.9302L34.8594 67.5625ZM5.98438 66.7188L5.1906 67.327L5.19309 67.3302L5.98438 66.7188ZM34.5781 59.1719L35.468 59.6281L35.5781 59.4133V59.1719H34.5781ZM34.5781 35.875H35.5781V35.6212L35.4571 35.3982L34.5781 35.875ZM1.45312 47.2188C1.45312 39.5934 3.25859 33.5809 6.77232 29.0845L5.19643 27.853C1.33516 32.7941 -0.546875 39.2816 -0.546875 47.2188H1.45312ZM6.77429 29.082C10.274 24.5738 14.8116 22.3438 20.4688 22.3438V20.3438C14.1884 20.3438 9.06973 22.8637 5.19446 27.8555L6.77429 29.082ZM20.4688 22.3438C26.1503 22.3438 30.5615 24.2733 33.8176 28.0868L35.3386 26.7882C31.6573 22.4767 26.6622 20.3438 20.4688 20.3438V22.3438ZM35.5781 27.4375V1H33.5781V27.4375H35.5781ZM34.5781 2H43.25V0H34.5781V2ZM42.25 1V73H44.25V1H42.25ZM43.25 72H35.2812V74H43.25V72ZM36.2783 72.9226L35.8564 67.4851L33.8624 67.6399L34.2842 73.0774L36.2783 72.9226ZM34.0847 66.9302C30.8316 70.9159 26.3055 72.9375 20.375 72.9375V74.9375C26.8195 74.9375 31.9496 72.7091 35.6341 68.1948L34.0847 66.9302ZM20.375 72.9375C14.8222 72.9375 10.3128 70.6848 6.77566 66.1073L5.19309 67.3302C9.09342 72.3777 14.1778 74.9375 20.375 74.9375V72.9375ZM6.77815 66.1105C3.25766 61.516 1.45312 55.4669 1.45312 47.875H-0.546875C-0.546875 55.7831 1.33609 62.2965 5.1906 67.327L6.77815 66.1105ZM1.45312 47.875V47.2188H-0.546875V47.875H1.45312ZM8.125 48.2031C8.125 54.0775 9.33656 58.8125 11.8801 62.2931L13.4949 61.1131C11.2884 58.0938 10.125 53.8288 10.125 48.2031H8.125ZM11.8801 62.2931C14.4522 65.8128 18.0398 67.5781 22.5312 67.5781V65.5781C18.6477 65.5781 15.6728 64.0935 13.4949 61.1131L11.8801 62.2931ZM22.5312 67.5781C25.4348 67.5781 28.0017 66.9249 30.1917 65.5784C32.3812 64.2324 34.1338 62.2306 35.468 59.6281L33.6882 58.7157C32.4912 61.0507 30.9703 62.752 29.1442 63.8747C27.3187 64.997 25.1277 65.5781 22.5312 65.5781V67.5781ZM35.5781 59.1719V35.875H33.5781V59.1719H35.5781ZM35.4571 35.3982C34.0897 32.8775 32.329 30.9406 30.159 29.6386C27.9884 28.3362 25.4649 27.7031 22.625 27.7031V29.7031C25.1601 29.7031 27.3163 30.2653 29.13 31.3536C30.9444 32.4422 32.4728 34.0913 33.6991 36.3518L35.4571 35.3982ZM22.625 27.7031C18.0728 27.7031 14.4511 29.4829 11.8774 33.0387L13.4976 34.2113C15.6739 31.2046 18.6772 29.7031 22.625 29.7031V27.7031ZM11.8774 33.0387C9.32542 36.5645 8.125 41.6698 8.125 48.2031H10.125C10.125 41.8614 11.2996 37.248 13.4976 34.2113L11.8774 33.0387ZM57.3594 33.7656L56.4635 33.3212L56.4607 33.3269L57.3594 33.7656ZM65.5156 24.5781L64.9911 23.7267L64.9877 23.7288L65.5156 24.5781ZM94.2031 28.5156L93.4557 29.18L93.4581 29.1827L94.2031 28.5156ZM97.7656 61.5156L96.8656 61.0799L96.8641 61.0829L97.7656 61.5156ZM89.6562 70.6562L89.1296 69.8061L89.1263 69.8083L89.6562 70.6562ZM60.8281 66.7656L60.0807 67.43L60.0831 67.4327L60.8281 66.7656ZM67.0625 61.75L66.2669 62.3558L66.2704 62.3604L67.0625 61.75ZM88.0625 61.7031L88.8608 62.3055L88.8634 62.302L88.0625 61.7031ZM87.9688 33.6719L87.1713 34.2753L87.1775 34.2833L87.9688 33.6719ZM55.4531 47.1719C55.4531 42.336 56.3951 38.0202 58.258 34.2043L56.4607 33.3269C54.4486 37.4485 53.4531 42.0702 53.4531 47.1719H55.4531ZM58.2552 34.21C60.1486 30.3932 62.746 27.4772 66.0436 25.4274L64.9877 23.7288C61.3477 25.9915 58.5076 29.2006 56.4635 33.3212L58.2552 34.21ZM66.0401 25.4295C69.3688 23.3788 73.1685 22.3438 77.4688 22.3438V20.3438C72.8315 20.3438 68.6625 21.4649 64.9911 23.7267L66.0401 25.4295ZM77.4688 22.3438C84.115 22.3438 89.4119 24.6306 93.4557 29.18L94.9505 27.8513C90.4944 22.8381 84.635 20.3438 77.4688 20.3438V22.3438ZM93.4581 29.1827C97.5387 33.7398 99.625 39.8416 99.625 47.5938H101.625C101.625 39.4709 99.43 32.8539 94.9481 27.8485L93.4581 29.1827ZM99.625 47.5938V48.2031H101.625V47.5938H99.625ZM99.625 48.2031C99.625 53.0092 98.698 57.2948 96.8656 61.0799L98.6657 61.9514C100.646 57.8615 101.625 53.272 101.625 48.2031H99.625ZM96.8641 61.0829C95.0679 64.8249 92.4914 67.7236 89.1296 69.8061L90.1829 71.5064C93.8836 69.2139 96.7133 66.0189 98.6671 61.9484L96.8641 61.0829ZM89.1263 69.8083C85.8017 71.8861 81.958 72.9375 77.5625 72.9375V74.9375C82.292 74.9375 86.5108 73.8014 90.1862 71.5042L89.1263 69.8083ZM77.5625 72.9375C70.949 72.9375 65.65 70.6515 61.5731 66.0985L60.0831 67.4327C64.5688 72.4422 70.426 74.9375 77.5625 74.9375V72.9375ZM61.5755 66.1013C57.5236 61.5428 55.4531 55.4704 55.4531 47.7812H53.4531C53.4531 55.8421 55.6327 62.4259 60.0807 67.43L61.5755 66.1013ZM55.4531 47.7812V47.1719H53.4531V47.7812H55.4531ZM62.1719 48.2031C62.1719 53.9783 63.5042 58.7277 66.2669 62.3558L67.8581 61.1442C65.4333 57.9598 64.1719 53.6779 64.1719 48.2031H62.1719ZM66.2704 62.3604C69.0886 66.0173 72.8837 67.8594 77.5625 67.8594V65.8594C73.4913 65.8594 70.2864 64.2952 67.8546 61.1396L66.2704 62.3604ZM77.5625 67.8594C82.2739 67.8594 86.0729 66.0001 88.8608 62.3054L87.2642 61.1008C84.8646 64.2811 81.6636 65.8594 77.5625 65.8594V67.8594ZM88.8634 62.302C91.6319 58.5995 92.9531 53.5156 92.9531 47.1719H90.9531C90.9531 53.2657 89.6806 57.8693 87.2616 61.1043L88.8634 62.302ZM92.9531 47.1719C92.9531 41.4508 91.5855 36.7169 88.76 33.0604L87.1775 34.2833C89.6645 37.5018 90.9531 41.7679 90.9531 47.1719H92.9531ZM88.7662 33.0684C85.9509 29.3482 82.1549 27.4688 77.4688 27.4688V29.4688C81.5326 29.4688 84.7366 31.058 87.1713 34.2753L88.7662 33.0684ZM77.4688 27.4688C72.8757 27.4688 69.1306 29.3171 66.3173 32.9677L67.9015 34.1885C70.3381 31.0267 73.4993 29.4688 77.4688 29.4688V27.4688ZM66.3173 32.9677C63.5068 36.6147 62.1719 41.7392 62.1719 48.2031H64.1719C64.1719 41.9795 65.462 37.354 67.9015 34.1885L66.3173 32.9677ZM119.703 22.2812L120.702 22.2372L120.66 21.2812H119.703V22.2812ZM119.984 28.6562L118.985 28.7003L119.103 31.3719L120.767 29.2785L119.984 28.6562ZM151.391 39.4844L152.391 39.4844L152.391 39.4766L151.391 39.4844ZM151.391 73V74H152.391V73H151.391ZM142.719 73H141.719V74H142.719V73ZM142.719 39.4375L143.719 39.4375L143.719 39.429L142.719 39.4375ZM140.188 31.3281L139.455 32.0086L139.461 32.0155L140.188 31.3281ZM120.172 36.8594L119.273 36.4214L119.172 36.6287V36.8594H120.172ZM120.172 73V74H121.172V73H120.172ZM111.5 73H110.5V74H111.5V73ZM111.5 22.2812V21.2812H110.5V22.2812H111.5ZM118.704 22.3253L118.985 28.7003L120.983 28.6122L120.702 22.2372L118.704 22.3253ZM120.767 29.2785C124.452 24.6432 129.225 22.3438 135.172 22.3438V20.3438C128.618 20.3438 123.267 22.9193 119.202 28.034L120.767 29.2785ZM135.172 22.3438C140.343 22.3438 144.063 23.7968 146.52 26.5454C148.998 29.3165 150.345 33.5723 150.391 39.4921L152.391 39.4766C152.343 33.3027 150.94 28.4882 148.011 25.2124C145.062 21.9141 140.719 20.3438 135.172 20.3438V22.3438ZM150.391 39.4844V73H152.391V39.4844H150.391ZM151.391 72H142.719V74H151.391V72ZM143.719 73V39.4375H141.719V73H143.719ZM143.719 39.429C143.686 35.6472 142.815 32.6495 140.914 30.6407L139.461 32.0155C140.873 33.5067 141.689 35.9153 141.719 39.446L143.719 39.429ZM140.92 30.6477C139.034 28.6163 136.166 27.7031 132.547 27.7031V29.7031C135.865 29.7031 138.091 30.54 139.455 32.0086L140.92 30.6477ZM132.547 27.7031C129.546 27.7031 126.872 28.5073 124.564 30.1362L125.717 31.7701C127.66 30.399 129.923 29.7031 132.547 29.7031V27.7031ZM124.564 30.1362C122.295 31.7375 120.531 33.8391 119.273 36.4214L121.071 37.2973C122.188 35.0046 123.736 33.1687 125.717 31.7701L124.564 30.1362ZM119.172 36.8594V73H121.172V36.8594H119.172ZM120.172 72H111.5V74H120.172V72ZM112.5 73V22.2812H110.5V73H112.5ZM111.5 23.2812H119.703V21.2812H111.5V23.2812ZM195.781 73L194.887 73.4472L195.163 74H195.781V73ZM194.562 67.6562L195.555 67.5352L195.301 65.4477L193.842 66.9627L194.562 67.6562ZM167.797 69.7188L167.131 70.465L167.139 70.4718L167.797 69.7188ZM169.016 46.6562L169.603 47.4653L169.605 47.4644L169.016 46.6562ZM194.422 42.25V43.25H195.422V42.25H194.422ZM191.703 31.0469L190.996 31.754L191.002 31.7601L191.703 31.0469ZM172.766 36.3438V37.3438H173.766V36.3438H172.766ZM164.047 36.3438H163.047V37.3438H164.047V36.3438ZM166.719 29.0312L165.924 28.4246L165.923 28.4262L166.719 29.0312ZM174.031 23.4062L173.625 22.4924L173.622 22.494L174.031 23.4062ZM197.938 25.75L197.274 26.4982L197.278 26.5017L197.938 25.75ZM203.094 37.7969H204.094V37.7847L204.093 37.7725L203.094 37.7969ZM204.875 72.25H205.875V72.0433L205.793 71.8536L204.875 72.25ZM204.875 73V74H205.875V73H204.875ZM194.422 58.7969L195.321 59.2341L195.422 59.0271V58.7969H194.422ZM194.422 48.3906H195.422V47.3906H194.422V48.3906ZM196.676 72.5528C196.26 71.7213 195.867 70.0939 195.555 67.5352L193.57 67.7773C193.883 70.3436 194.303 72.2787 194.887 73.4472L196.676 72.5528ZM193.842 66.9627C189.991 70.963 185.435 72.9375 180.125 72.9375V74.9375C186.002 74.9375 191.071 72.7245 195.283 68.3498L193.842 66.9627ZM180.125 72.9375C175.324 72.9375 171.461 71.5926 168.455 68.9657L167.139 70.4718C170.57 73.4699 174.926 74.9375 180.125 74.9375V72.9375ZM168.463 68.9726C165.492 66.3222 164.016 63.0017 164.016 58.9375H162.016C162.016 63.5608 163.727 67.4278 167.131 70.4649L168.463 68.9726ZM164.016 58.9375C164.016 53.9508 165.882 50.1688 169.603 47.4653L168.428 45.8472C164.149 48.9562 162.016 53.3617 162.016 58.9375H164.016ZM169.605 47.4644C173.402 44.6971 178.822 43.25 185.984 43.25V41.25C178.585 41.25 172.691 42.7404 168.427 45.8481L169.605 47.4644ZM185.984 43.25H194.422V41.25H185.984V43.25ZM195.422 42.25V38.2656H193.422V42.25H195.422ZM195.422 38.2656C195.422 35.0218 194.444 32.3386 192.404 30.3336L191.002 31.7601C192.587 33.3176 193.422 35.447 193.422 38.2656H195.422ZM192.41 30.3398C190.349 28.2781 187.382 27.3281 183.688 27.3281V29.3281C187.056 29.3281 189.433 30.1907 190.996 31.754L192.41 30.3398ZM183.688 27.3281C180.419 27.3281 177.605 28.1565 175.308 29.8704L176.504 31.4733C178.395 30.0623 180.768 29.3281 183.688 29.3281V27.3281ZM175.308 29.8704C173.012 31.5838 171.766 33.751 171.766 36.3438H173.766C173.766 34.499 174.613 32.885 176.504 31.4733L175.308 29.8704ZM172.766 35.3438H164.047V37.3438H172.766V35.3438ZM165.047 36.3438C165.047 34.0654 165.843 31.8356 167.515 29.6363L165.923 28.4262C164.032 30.9144 163.047 33.5596 163.047 36.3438H165.047ZM167.514 29.6379C169.213 27.411 171.511 25.6339 174.441 24.3185L173.622 22.494C170.426 23.9286 167.849 25.9015 165.924 28.4246L167.514 29.6379ZM174.437 24.3201C177.392 23.0068 180.643 22.3438 184.203 22.3438V20.3438C180.388 20.3438 176.858 21.0557 173.625 22.4924L174.437 24.3201ZM184.203 22.3438C189.882 22.3438 194.196 23.769 197.274 26.4982L198.601 25.0018C195.054 21.856 190.212 20.3438 184.203 20.3438V22.3438ZM197.278 26.5017C200.346 29.1931 201.975 32.9256 202.094 37.8213L204.093 37.7725C203.963 32.4181 202.154 28.1194 198.597 24.9983L197.278 26.5017ZM202.094 37.7969V61.1406H204.094V37.7969H202.094ZM202.094 61.1406C202.094 65.8656 202.694 69.7213 203.957 72.6464L205.793 71.8536C204.681 69.2787 204.094 65.7282 204.094 61.1406H202.094ZM203.875 72.25V73H205.875V72.25H203.875ZM204.875 72H195.781V74H204.875V72ZM181.391 67.3906C184.291 67.3906 187.041 66.6381 189.625 65.1474L188.625 63.4151C186.334 64.7369 183.928 65.3906 181.391 65.3906V67.3906ZM189.625 65.1474C192.213 63.6543 194.129 61.6857 195.321 59.2341L193.523 58.3597C192.527 60.408 190.912 62.0957 188.625 63.4151L189.625 65.1474ZM195.422 58.7969V48.3906H193.422V58.7969H195.422ZM194.422 47.3906H187.625V49.3906H194.422V47.3906ZM187.625 47.3906C182.248 47.3906 178.051 48.1717 175.167 49.8596C172.2 51.596 170.688 54.2587 170.688 57.7188H172.688C172.688 54.96 173.831 52.9587 176.177 51.5857C178.606 50.1643 182.377 49.3906 187.625 49.3906V47.3906ZM170.688 57.7188C170.688 60.684 171.689 63.1075 173.761 64.8576L175.052 63.3299C173.498 62.0175 172.688 60.191 172.688 57.7188H170.688ZM173.761 64.8576C175.788 66.5702 178.36 67.3906 181.391 67.3906V65.3906C178.734 65.3906 176.649 64.6798 175.052 63.3299L173.761 64.8576ZM226.109 73V74H227.109V73H226.109ZM217.438 73H216.438V74H217.438V73ZM217.438 1V0H216.438V1H217.438ZM226.109 1H227.109V0H226.109V1ZM226.109 72H217.438V74H226.109V72ZM218.438 73V1H216.438V73H218.438ZM217.438 2H226.109V0H217.438V2ZM225.109 1V73H227.109V1H225.109ZM243.453 28.4688L244.241 29.0845L244.243 29.082L243.453 28.4688ZM272.047 27.4375L271.286 28.0868L273.047 30.1487V27.4375H272.047ZM272.047 1V0H271.047V1H272.047ZM280.719 1H281.719V0H280.719V1ZM280.719 73V74H281.719V73H280.719ZM272.75 73L271.753 73.0774L271.825 74H272.75V73ZM272.328 67.5625L273.325 67.4851L273.132 64.996L271.553 66.9302L272.328 67.5625ZM243.453 66.7188L242.659 67.327L242.662 67.3302L243.453 66.7188ZM272.047 59.1719L272.937 59.6281L273.047 59.4133V59.1719H272.047ZM272.047 35.875H273.047V35.6212L272.926 35.3982L272.047 35.875ZM238.922 47.2188C238.922 39.5934 240.727 33.5809 244.241 29.0845L242.665 27.853C238.804 32.7941 236.922 39.2816 236.922 47.2188H238.922ZM244.243 29.082C247.743 24.5738 252.28 22.3438 257.938 22.3438V20.3438C251.657 20.3438 246.538 22.8637 242.663 27.8555L244.243 29.082ZM257.938 22.3438C263.619 22.3438 268.03 24.2733 271.286 28.0868L272.807 26.7882C269.126 22.4767 264.131 20.3438 257.938 20.3438V22.3438ZM273.047 27.4375V1H271.047V27.4375H273.047ZM272.047 2H280.719V0H272.047V2ZM279.719 1V73H281.719V1H279.719ZM280.719 72H272.75V74H280.719V72ZM273.747 72.9226L273.325 67.4851L271.331 67.6399L271.753 73.0774L273.747 72.9226ZM271.553 66.9302C268.3 70.9159 263.774 72.9375 257.844 72.9375V74.9375C264.288 74.9375 269.418 72.7091 273.103 68.1948L271.553 66.9302ZM257.844 72.9375C252.291 72.9375 247.782 70.6848 244.244 66.1073L242.662 67.3302C246.562 72.3777 251.647 74.9375 257.844 74.9375V72.9375ZM244.247 66.1105C240.726 61.516 238.922 55.4669 238.922 47.875H236.922C236.922 55.7831 238.805 62.2965 242.659 67.327L244.247 66.1105ZM238.922 47.875V47.2188H236.922V47.875H238.922ZM245.594 48.2031C245.594 54.0775 246.805 58.8125 249.349 62.2931L250.964 61.1131C248.757 58.0938 247.594 53.8288 247.594 48.2031H245.594ZM249.349 62.2931C251.921 65.8128 255.509 67.5781 260 67.5781V65.5781C256.116 65.5781 253.142 64.0935 250.964 61.1131L249.349 62.2931ZM260 67.5781C262.904 67.5781 265.47 66.9249 267.66 65.5784C269.85 64.2324 271.603 62.2306 272.937 59.6281L271.157 58.7157C269.96 61.0507 268.439 62.752 266.613 63.8747C264.787 64.997 262.596 65.5781 260 65.5781V67.5781ZM273.047 59.1719V35.875H271.047V59.1719H273.047ZM272.926 35.3982C271.558 32.8775 269.798 30.9406 267.628 29.6386C265.457 28.3362 262.934 27.7031 260.094 27.7031V29.7031C262.629 29.7031 264.785 30.2653 266.599 31.3536C268.413 32.4422 269.942 34.0913 271.168 36.3518L272.926 35.3982ZM260.094 27.7031C255.542 27.7031 251.92 29.4829 249.346 33.0387L250.966 34.2113C253.143 31.2046 256.146 29.7031 260.094 29.7031V27.7031ZM249.346 33.0387C246.794 36.5645 245.594 41.6698 245.594 48.2031H247.594C247.594 41.8614 248.768 37.248 250.966 34.2113L249.346 33.0387ZM324.125 0.109375L324.687 -0.717842L324.064 -1.14062L323.486 -0.659664L324.125 0.109375ZM329.094 3.48438L329.901 4.07519L330.513 3.2393L329.656 2.65716L329.094 3.48438ZM324.594 16.3281L323.594 16.3077L323.594 16.3179V16.3281H324.594ZM324.594 22.7031V23.7031H325.594V22.7031H324.594ZM315.969 22.7031H314.969V23.7031H315.969V22.7031ZM318.219 7.79688L317.321 7.35685L317.317 7.36414L318.219 7.79688ZM323.563 0.936592L328.532 4.31159L329.656 2.65716L324.687 -0.717842L323.563 0.936592ZM328.287 2.89356C325.268 7.01575 323.692 11.4937 323.594 16.3077L325.594 16.3485C325.683 11.975 327.107 7.8905 329.901 4.07519L328.287 2.89356ZM323.594 16.3281V22.7031H325.594V16.3281H323.594ZM324.594 21.7031H315.969V23.7031H324.594V21.7031ZM316.969 22.7031V17.2656H314.969V22.7031H316.969ZM316.969 17.2656C316.969 14.2407 317.679 11.2316 319.12 8.22961L317.317 7.36414C315.758 10.6122 314.969 13.9156 314.969 17.2656H316.969ZM319.117 8.23689C320.593 5.2243 322.478 2.77858 324.764 0.878414L323.486 -0.659664C320.959 1.44017 318.907 4.11945 317.321 7.35686L319.117 8.23689ZM334.953 33.7656L334.057 33.3212L334.054 33.3269L334.953 33.7656ZM343.109 24.5781L342.585 23.7267L342.581 23.7288L343.109 24.5781ZM371.797 28.5156L371.049 29.18L371.052 29.1827L371.797 28.5156ZM375.359 61.5156L374.459 61.0799L374.458 61.0829L375.359 61.5156ZM367.25 70.6562L366.723 69.8061L366.72 69.8083L367.25 70.6562ZM338.422 66.7656L337.674 67.43L337.677 67.4327L338.422 66.7656ZM344.656 61.75L343.861 62.3558L343.864 62.3604L344.656 61.75ZM365.656 61.7031L366.455 62.3055L366.457 62.302L365.656 61.7031ZM365.562 33.6719L364.765 34.2753L364.771 34.2833L365.562 33.6719ZM333.047 47.1719C333.047 42.336 333.989 38.0202 335.852 34.2043L334.054 33.3269C332.042 37.4485 331.047 42.0702 331.047 47.1719H333.047ZM335.849 34.21C337.742 30.3932 340.34 27.4772 343.637 25.4274L342.581 23.7288C338.941 25.9915 336.101 29.2006 334.057 33.3212L335.849 34.21ZM343.634 25.4295C346.963 23.3788 350.762 22.3438 355.062 22.3438V20.3438C350.425 20.3438 346.256 21.4649 342.585 23.7267L343.634 25.4295ZM355.062 22.3438C361.709 22.3438 367.006 24.6306 371.049 29.18L372.544 27.8513C368.088 22.8381 362.229 20.3438 355.062 20.3438V22.3438ZM371.052 29.1827C375.132 33.7398 377.219 39.8416 377.219 47.5938H379.219C379.219 39.4709 377.024 32.8539 372.542 27.8485L371.052 29.1827ZM377.219 47.5938V48.2031H379.219V47.5938H377.219ZM377.219 48.2031C377.219 53.0092 376.292 57.2948 374.459 61.0799L376.259 61.9514C378.239 57.8615 379.219 53.272 379.219 48.2031H377.219ZM374.458 61.0829C372.662 64.8249 370.085 67.7236 366.723 69.8061L367.777 71.5064C371.477 69.2139 374.307 66.0189 376.261 61.9484L374.458 61.0829ZM366.72 69.8083C363.395 71.8861 359.552 72.9375 355.156 72.9375V74.9375C359.886 74.9375 364.105 73.8014 367.78 71.5042L366.72 69.8083ZM355.156 72.9375C348.543 72.9375 343.244 70.6515 339.167 66.0985L337.677 67.4327C342.163 72.4422 348.02 74.9375 355.156 74.9375V72.9375ZM339.169 66.1013C335.117 61.5428 333.047 55.4704 333.047 47.7812H331.047C331.047 55.8421 333.226 62.4259 337.674 67.43L339.169 66.1013ZM333.047 47.7812V47.1719H331.047V47.7812H333.047ZM339.766 48.2031C339.766 53.9783 341.098 58.7277 343.861 62.3558L345.452 61.1442C343.027 57.9598 341.766 53.6779 341.766 48.2031H339.766ZM343.864 62.3604C346.682 66.0173 350.477 67.8594 355.156 67.8594V65.8594C351.085 65.8594 347.88 64.2952 345.448 61.1396L343.864 62.3604ZM355.156 67.8594C359.868 67.8594 363.667 66.0001 366.455 62.3054L364.858 61.1008C362.458 64.2811 359.257 65.8594 355.156 65.8594V67.8594ZM366.457 62.302C369.226 58.5995 370.547 53.5156 370.547 47.1719H368.547C368.547 53.2657 367.274 57.8693 364.855 61.1043L366.457 62.302ZM370.547 47.1719C370.547 41.4508 369.179 36.7169 366.354 33.0604L364.771 34.2833C367.258 37.5018 368.547 41.7679 368.547 47.1719H370.547ZM366.36 33.0684C363.545 29.3482 359.749 27.4688 355.062 27.4688V29.4688C359.126 29.4688 362.33 31.058 364.765 34.2753L366.36 33.0684ZM355.062 27.4688C350.469 27.4688 346.724 29.3171 343.911 32.9677L345.495 34.1885C347.932 31.0267 351.093 29.4688 355.062 29.4688V27.4688ZM343.911 32.9677C341.101 36.6147 339.766 41.7392 339.766 48.2031H341.766C341.766 41.9795 343.056 37.354 345.495 34.1885L343.911 32.9677ZM392.516 28.4688L393.304 29.0845L393.306 29.082L392.516 28.4688ZM421.109 27.4375L420.349 28.0868L422.109 30.1487V27.4375H421.109ZM421.109 1V0H420.109V1H421.109ZM429.781 1H430.781V0H429.781V1ZM429.781 73V74H430.781V73H429.781ZM421.812 73L420.815 73.0774L420.887 74H421.812V73ZM421.391 67.5625L422.388 67.4851L422.195 64.996L420.616 66.9302L421.391 67.5625ZM392.516 66.7188L391.722 67.327L391.724 67.3302L392.516 66.7188ZM421.109 59.1719L421.999 59.6281L422.109 59.4133V59.1719H421.109ZM421.109 35.875H422.109V35.6212L421.988 35.3982L421.109 35.875ZM387.984 47.2188C387.984 39.5934 389.79 33.5809 393.304 29.0845L391.728 27.853C387.866 32.7941 385.984 39.2816 385.984 47.2188H387.984ZM393.306 29.082C396.805 24.5738 401.343 22.3438 407 22.3438V20.3438C400.72 20.3438 395.601 22.8637 391.726 27.8555L393.306 29.082ZM407 22.3438C412.682 22.3438 417.093 24.2733 420.349 28.0868L421.87 26.7882C418.189 22.4767 413.193 20.3438 407 20.3438V22.3438ZM422.109 27.4375V1H420.109V27.4375H422.109ZM421.109 2H429.781V0H421.109V2ZM428.781 1V73H430.781V1H428.781ZM429.781 72H421.812V74H429.781V72ZM422.81 72.9226L422.388 67.4851L420.394 67.6399L420.815 73.0774L422.81 72.9226ZM420.616 66.9302C417.363 70.9159 412.837 72.9375 406.906 72.9375V74.9375C413.351 74.9375 418.481 72.7091 422.165 68.1948L420.616 66.9302ZM406.906 72.9375C401.353 72.9375 396.844 70.6848 393.307 66.1073L391.724 67.3302C395.625 72.3777 400.709 74.9375 406.906 74.9375V72.9375ZM393.309 66.1105C389.789 61.516 387.984 55.4669 387.984 47.875H385.984C385.984 55.7831 387.867 62.2965 391.722 67.327L393.309 66.1105ZM387.984 47.875V47.2188H385.984V47.875H387.984ZM394.656 48.2031C394.656 54.0775 395.868 58.8125 398.411 62.2931L400.026 61.1131C397.82 58.0938 396.656 53.8288 396.656 48.2031H394.656ZM398.411 62.2931C400.983 65.8128 404.571 67.5781 409.062 67.5781V65.5781C405.179 65.5781 402.204 64.0935 400.026 61.1131L398.411 62.2931ZM409.062 67.5781C411.966 67.5781 414.533 66.9249 416.723 65.5784C418.912 64.2324 420.665 62.2306 421.999 59.6281L420.219 58.7157C419.022 61.0507 417.502 62.752 415.675 63.8747C413.85 64.997 411.659 65.5781 409.062 65.5781V67.5781ZM422.109 59.1719V35.875H420.109V59.1719H422.109ZM421.988 35.3982C420.621 32.8775 418.86 30.9406 416.69 29.6386C414.52 28.3362 411.996 27.7031 409.156 27.7031V29.7031C411.691 29.7031 413.848 30.2653 415.661 31.3536C417.476 32.4422 419.004 34.0913 420.23 36.3518L421.988 35.3982ZM409.156 27.7031C404.604 27.7031 400.982 29.4829 398.409 33.0387L400.029 34.2113C402.205 31.2046 405.208 29.7031 409.156 29.7031V27.7031ZM398.409 33.0387C395.857 36.5645 394.656 41.6698 394.656 48.2031H396.656C396.656 41.8614 397.831 37.248 400.029 34.2113L398.409 33.0387ZM447.547 67.1875L446.822 67.8769L446.825 67.8794L447.547 67.1875ZM443.938 34L443.039 33.5613L443.037 33.5643L443.938 34ZM452 24.7188L452.542 25.5589L452.544 25.5577L452 24.7188ZM484.109 50.125V51.125H485.109V50.125H484.109ZM449.75 50.125V49.125H448.725L448.75 50.15L449.75 50.125ZM454.109 62.2656L453.366 62.9342L453.373 62.942L454.109 62.2656ZM478.156 60.0156L478.771 59.2266L477.979 58.6099L477.365 59.4042L478.156 60.0156ZM483.453 64.1406L484.291 64.686L484.792 63.9161L484.068 63.3516L483.453 64.1406ZM454.438 32.3125L455.167 32.9968L455.171 32.9923L454.438 32.3125ZM450.031 43L449.039 42.8785L448.901 44H450.031V43ZM475.438 43V44H476.438V43H475.438ZM475.438 42.3438H476.438V42.3154L476.436 42.2871L475.438 42.3438ZM471.875 32.125L471.121 32.7821L471.125 32.7869L471.875 32.125ZM464.328 72.9375C457.695 72.9375 452.372 70.7774 448.269 66.4956L446.825 67.8794C451.346 72.5976 457.212 74.9375 464.328 74.9375V72.9375ZM448.271 66.4981C444.171 62.1902 442.078 56.4096 442.078 49.0469H440.078C440.078 56.8092 442.297 63.1223 446.822 67.8769L448.271 66.4981ZM442.078 49.0469V47.4531H440.078V49.0469H442.078ZM442.078 47.4531C442.078 42.5501 443.006 38.2184 444.838 34.4357L443.037 33.5643C441.056 37.6566 440.078 42.2936 440.078 47.4531H442.078ZM444.836 34.4387C446.7 30.6203 449.27 27.671 452.542 25.5589L451.458 23.8786C447.855 26.204 445.05 29.4422 443.039 33.5613L444.836 34.4387ZM452.544 25.5577C455.855 23.41 459.417 22.3438 463.25 22.3438V20.3438C459.02 20.3438 455.082 21.5275 451.456 23.8798L452.544 25.5577ZM463.25 22.3438C469.602 22.3438 474.425 24.4229 477.86 28.5033L479.39 27.2154C475.512 22.6083 470.086 20.3438 463.25 20.3438V22.3438ZM477.86 28.5033C481.311 32.6035 483.109 38.5589 483.109 46.5156H485.109C485.109 38.2848 483.251 31.8027 479.39 27.2154L477.86 28.5033ZM483.109 46.5156V50.125H485.109V46.5156H483.109ZM484.109 49.125H449.75V51.125H484.109V49.125ZM448.75 50.15C448.88 55.3378 450.394 59.6291 453.366 62.9342L454.853 61.5971C452.262 58.7147 450.87 54.9122 450.75 50.1L448.75 50.15ZM453.373 62.942C456.383 66.2193 460.216 67.8594 464.797 67.8594V65.8594C460.753 65.8594 457.461 64.437 454.846 61.5892L453.373 62.942ZM464.797 67.8594C467.995 67.8594 470.773 67.2062 473.085 65.8463L472.071 64.1224C470.133 65.2626 467.724 65.8594 464.797 65.8594V67.8594ZM473.085 65.8463C475.326 64.528 477.28 62.7846 478.948 60.6271L477.365 59.4042C475.845 61.3717 474.08 62.9407 472.071 64.1224L473.085 65.8463ZM477.542 60.8046L482.839 64.9296L484.068 63.3516L478.771 59.2266L477.542 60.8046ZM482.615 63.5952C478.569 69.8136 472.526 72.9375 464.328 72.9375V74.9375C473.13 74.9375 479.838 71.5301 484.291 64.686L482.615 63.5952ZM463.25 27.4688C459.472 27.4688 456.269 28.8656 453.704 31.6327L455.171 32.9923C457.356 30.6344 460.028 29.4688 463.25 29.4688V27.4688ZM453.708 31.6283C451.146 34.3587 449.618 38.1435 449.039 42.8785L451.024 43.1215C451.569 38.669 452.979 35.3288 455.167 32.9967L453.708 31.6283ZM450.031 44H475.438V42H450.031V44ZM476.438 43V42.3438H474.438V43H476.438ZM476.436 42.2871C476.178 37.7398 474.945 34.0906 472.625 31.4631L471.125 32.7869C473.055 34.9719 474.197 38.1352 474.439 42.4004L476.436 42.2871ZM472.629 31.4679C470.29 28.7847 467.125 27.4688 463.25 27.4688V29.4688C466.625 29.4688 469.21 30.5903 471.121 32.7821L472.629 31.4679ZM518.703 30.0625L518.539 31.0489L519.703 31.243V30.0625H518.703ZM502.859 37L501.937 36.6133L501.859 36.7988V37H502.859ZM502.859 73V74H503.859V73H502.859ZM494.188 73H493.188V74H494.188V73ZM494.188 22.2812V21.2812H493.188V22.2812H494.188ZM502.625 22.2812L503.625 22.2573L503.601 21.2812H502.625V22.2812ZM502.766 28.1406L501.766 28.1646L501.846 31.4877L503.613 28.6722L502.766 28.1406ZM518.703 22H519.703V21.382L519.15 21.1056L518.703 22ZM518.868 29.0761C517.493 28.8471 516.016 28.7344 514.438 28.7344V30.7344C515.922 30.7344 517.288 30.8404 518.539 31.0489L518.868 29.0761ZM514.438 28.7344C511.452 28.7344 508.87 29.3707 506.746 30.7037C504.616 32.0403 503.02 34.0314 501.937 36.6133L503.782 37.3867C504.73 35.1249 506.079 33.4831 507.809 32.3978C509.544 31.309 511.735 30.7344 514.438 30.7344V28.7344ZM501.859 37V73H503.859V37H501.859ZM502.859 72H494.188V74H502.859V72ZM495.188 73V22.2812H493.188V73H495.188ZM494.188 23.2812H502.625V21.2812H494.188V23.2812ZM501.625 22.3052L501.766 28.1646L503.765 28.1166L503.625 22.2573L501.625 22.3052ZM503.613 28.6722C506.279 24.4235 509.995 22.3438 514.859 22.3438V20.3438C509.286 20.3438 504.94 22.7952 501.919 27.6091L503.613 28.6722ZM514.859 22.3438C516.489 22.3438 517.586 22.5597 518.256 22.8944L519.15 21.1056C518.07 20.5653 516.605 20.3438 514.859 20.3438V22.3438ZM517.703 22V30.0625H519.703V22H517.703ZM556.156 73L555.262 73.4472L555.538 74H556.156V73ZM554.938 67.6562L555.93 67.5352L555.676 65.4477L554.217 66.9627L554.938 67.6562ZM528.172 69.7188L527.506 70.465L527.514 70.4718L528.172 69.7188ZM529.391 46.6562L529.978 47.4653L529.98 47.4644L529.391 46.6562ZM554.797 42.25V43.25H555.797V42.25H554.797ZM552.078 31.0469L551.371 31.754L551.377 31.7601L552.078 31.0469ZM533.141 36.3438V37.3438H534.141V36.3438H533.141ZM524.422 36.3438H523.422V37.3438H524.422V36.3438ZM527.094 29.0312L526.299 28.4246L526.298 28.4262L527.094 29.0312ZM534.406 23.4062L534 22.4924L533.997 22.494L534.406 23.4062ZM558.312 25.75L557.649 26.4982L557.653 26.5017L558.312 25.75ZM563.469 37.7969H564.469V37.7847L564.468 37.7725L563.469 37.7969ZM565.25 72.25H566.25V72.0433L566.168 71.8536L565.25 72.25ZM565.25 73V74H566.25V73H565.25ZM554.797 58.7969L555.696 59.2341L555.797 59.0271V58.7969H554.797ZM554.797 48.3906H555.797V47.3906H554.797V48.3906ZM557.051 72.5528C556.635 71.7213 556.242 70.0939 555.93 67.5352L553.945 67.7773C554.258 70.3436 554.678 72.2787 555.262 73.4472L557.051 72.5528ZM554.217 66.9627C550.366 70.963 545.81 72.9375 540.5 72.9375V74.9375C546.377 74.9375 551.446 72.7245 555.658 68.3498L554.217 66.9627ZM540.5 72.9375C535.699 72.9375 531.836 71.5926 528.83 68.9657L527.514 70.4718C530.945 73.4699 535.301 74.9375 540.5 74.9375V72.9375ZM528.838 68.9726C525.867 66.3222 524.391 63.0017 524.391 58.9375H522.391C522.391 63.5608 524.102 67.4278 527.506 70.4649L528.838 68.9726ZM524.391 58.9375C524.391 53.9508 526.257 50.1688 529.978 47.4653L528.803 45.8472C524.524 48.9562 522.391 53.3617 522.391 58.9375H524.391ZM529.98 47.4644C533.777 44.6971 539.197 43.25 546.359 43.25V41.25C538.96 41.25 533.066 42.7404 528.802 45.8481L529.98 47.4644ZM546.359 43.25H554.797V41.25H546.359V43.25ZM555.797 42.25V38.2656H553.797V42.25H555.797ZM555.797 38.2656C555.797 35.0218 554.819 32.3386 552.779 30.3336L551.377 31.7601C552.962 33.3176 553.797 35.447 553.797 38.2656H555.797ZM552.785 30.3398C550.724 28.2781 547.757 27.3281 544.062 27.3281V29.3281C547.431 29.3281 549.808 30.1907 551.371 31.754L552.785 30.3398ZM544.062 27.3281C540.794 27.3281 537.98 28.1565 535.683 29.8704L536.879 31.4733C538.77 30.0623 541.143 29.3281 544.062 29.3281V27.3281ZM535.683 29.8704C533.387 31.5838 532.141 33.751 532.141 36.3438H534.141C534.141 34.499 534.988 32.885 536.879 31.4733L535.683 29.8704ZM533.141 35.3438H524.422V37.3438H533.141V35.3438ZM525.422 36.3438C525.422 34.0654 526.218 31.8356 527.89 29.6363L526.298 28.4262C524.407 30.9144 523.422 33.5596 523.422 36.3438H525.422ZM527.889 29.6379C529.588 27.411 531.886 25.6339 534.816 24.3185L533.997 22.494C530.801 23.9286 528.224 25.9015 526.299 28.4246L527.889 29.6379ZM534.812 24.3201C537.767 23.0068 541.018 22.3438 544.578 22.3438V20.3438C540.763 20.3438 537.233 21.0557 534 22.4924L534.812 24.3201ZM544.578 22.3438C550.257 22.3438 554.571 23.769 557.649 26.4982L558.976 25.0018C555.429 21.856 550.587 20.3438 544.578 20.3438V22.3438ZM557.653 26.5017C560.721 29.1931 562.35 32.9256 562.469 37.8213L564.468 37.7725C564.338 32.4181 562.529 28.1194 558.972 24.9983L557.653 26.5017ZM562.469 37.7969V61.1406H564.469V37.7969H562.469ZM562.469 61.1406C562.469 65.8656 563.069 69.7213 564.332 72.6464L566.168 71.8536C565.056 69.2787 564.469 65.7282 564.469 61.1406H562.469ZM564.25 72.25V73H566.25V72.25H564.25ZM565.25 72H556.156V74H565.25V72ZM541.766 67.3906C544.666 67.3906 547.416 66.6381 550 65.1474L549 63.4151C546.709 64.7369 544.303 65.3906 541.766 65.3906V67.3906ZM550 65.1474C552.588 63.6543 554.504 61.6857 555.696 59.2341L553.898 58.3597C552.902 60.408 551.287 62.0957 549 63.4151L550 65.1474ZM555.797 58.7969V48.3906H553.797V58.7969H555.797ZM554.797 47.3906H548V49.3906H554.797V47.3906ZM548 47.3906C542.623 47.3906 538.426 48.1717 535.542 49.8596C532.575 51.596 531.062 54.2587 531.062 57.7188H533.062C533.062 54.96 534.206 52.9587 536.552 51.5857C538.981 50.1643 542.752 49.3906 548 49.3906V47.3906ZM531.062 57.7188C531.062 60.684 532.064 63.1075 534.136 64.8576L535.427 63.3299C533.873 62.0175 533.062 60.191 533.062 57.7188H531.062ZM534.136 64.8576C536.163 66.5702 538.735 67.3906 541.766 67.3906V65.3906C539.109 65.3906 537.024 64.6798 535.427 63.3299L534.136 64.8576ZM574.484 23.9688L573.919 24.7935L574.531 25.2134L575.11 24.7486L574.484 23.9688ZM569.562 20.5938L568.749 20.0119L568.156 20.8416L568.997 21.4185L569.562 20.5938ZM574.062 7.75L575.062 7.77083L575.062 7.76042V7.75H574.062ZM574.062 1V0H573.062V1H574.062ZM582.641 1H583.641V0H582.641V1ZM582.641 7.09375L583.641 7.10375V7.09375H582.641ZM580.297 16.4688L579.399 16.0287L579.397 16.0325L580.297 16.4688ZM575.05 23.144L570.128 19.769L568.997 21.4185L573.919 24.7935L575.05 23.144ZM570.376 21.1756C573.386 16.9679 574.964 12.4942 575.062 7.77083L573.063 7.72917C572.974 12.0058 571.552 16.0946 568.749 20.0119L570.376 21.1756ZM575.062 7.75V1H573.062V7.75H575.062ZM574.062 2H582.641V0H574.062V2ZM581.641 1V7.09375H583.641V1H581.641ZM581.641 7.08375C581.611 10.0434 580.872 13.0223 579.399 16.0287L581.195 16.9088C582.784 13.6652 583.608 10.3941 583.641 7.10375L581.641 7.08375ZM579.397 16.0325C577.953 19.0101 576.104 21.3868 573.858 23.1889L575.11 24.7486C577.615 22.7382 579.64 20.1149 581.197 16.905L579.397 16.0325ZM648.219 67.9844L649.218 67.947L649.122 65.3785L647.457 67.3366L648.219 67.9844ZM620.984 69.25L620.238 69.9153L620.245 69.923L620.984 69.25ZM616.719 55.2812H615.719L615.719 55.2863L616.719 55.2812ZM616.719 22.2812V21.2812H615.719V22.2812H616.719ZM625.391 22.2812H626.391V21.2812H625.391V22.2812ZM647.984 59.1719L648.899 59.5769L648.984 59.3835V59.1719H647.984ZM647.984 22.2812V21.2812H646.984V22.2812H647.984ZM656.656 22.2812H657.656V21.2812H656.656V22.2812ZM656.656 73V74H657.656V73H656.656ZM648.406 73L647.407 73.0374L647.443 74H648.406V73ZM647.457 67.3366C644.319 71.027 639.678 72.9375 633.359 72.9375V74.9375C640.103 74.9375 645.369 72.8792 648.981 68.6322L647.457 67.3366ZM633.359 72.9375C628.151 72.9375 624.328 71.4389 621.724 68.577L620.245 69.923C623.328 73.3111 627.755 74.9375 633.359 74.9375V72.9375ZM621.731 68.5847C619.141 65.678 617.749 61.2979 617.719 55.2762L615.719 55.2863C615.751 61.5771 617.203 66.5095 620.238 69.9153L621.731 68.5847ZM617.719 55.2812V22.2812H615.719V55.2812H617.719ZM616.719 23.2812H625.391V21.2812H616.719V23.2812ZM624.391 22.2812V55.0469H626.391V22.2812H624.391ZM624.391 55.0469C624.391 59.0003 625.19 62.151 626.958 64.3261C628.759 66.5409 631.425 67.5781 634.766 67.5781V65.5781C631.856 65.5781 629.835 64.6935 628.51 63.0645C627.154 61.3959 626.391 58.7809 626.391 55.0469H624.391ZM634.766 67.5781C638.198 67.5781 641.136 66.9391 643.528 65.599C645.933 64.2514 647.724 62.2288 648.899 59.5769L647.07 58.7668C646.057 61.0524 644.551 62.733 642.55 63.8542C640.536 64.9828 637.959 65.5781 634.766 65.5781V67.5781ZM648.984 59.1719V22.2812H646.984V59.1719H648.984ZM647.984 23.2812H656.656V21.2812H647.984V23.2812ZM655.656 22.2812V73H657.656V22.2812H655.656ZM656.656 72H648.406V74H656.656V72ZM649.406 72.9626L649.218 67.947L647.219 68.0217L647.407 73.0374L649.406 72.9626ZM673.297 28.375L674.083 28.9926L674.085 28.99L673.297 28.375ZM702.312 27.9062L701.529 28.5275L703.118 30.5322L703.31 27.981L702.312 27.9062ZM702.734 22.2812V21.2812H701.807L701.737 22.2065L702.734 22.2812ZM710.656 22.2812H711.656V21.2812H710.656V22.2812ZM704.797 87.2969L704.101 86.5784L704.098 86.5812L704.797 87.2969ZM670.391 84.2031L669.634 83.549L669.132 84.1293L669.563 84.7644L670.391 84.2031ZM674.891 79L675.668 78.3708L674.916 77.442L674.134 78.3458L674.891 79ZM698.375 82.3281L697.668 81.621L697.663 81.6257L698.375 82.3281ZM701.938 67.9375H702.938V65.258L701.182 67.2823L701.938 67.9375ZM673.297 66.7656L672.503 67.3731L672.505 67.3763L673.297 66.7656ZM680.047 61.7031L679.233 62.2844L679.236 62.288L680.047 61.7031ZM701.938 59.125L702.826 59.5834L702.938 59.3677V59.125H701.938ZM701.938 35.9688H702.938V35.7126L702.814 35.4879L701.938 35.9688ZM668.812 47.2188C668.812 39.4615 670.606 33.4216 674.083 28.9926L672.51 27.7574C668.676 32.6409 666.812 39.1635 666.812 47.2188H668.812ZM674.085 28.99C677.549 24.5496 682.1 22.3438 687.828 22.3438V20.3438C681.494 20.3438 676.357 22.8254 672.508 27.76L674.085 28.99ZM687.828 22.3438C693.748 22.3438 698.272 24.4198 701.529 28.5275L703.096 27.285C699.415 22.6427 694.283 20.3438 687.828 20.3438V22.3438ZM703.31 27.981L703.732 22.356L701.737 22.2065L701.315 27.8315L703.31 27.981ZM702.734 23.2812H710.656V21.2812H702.734V23.2812ZM709.656 22.2812V71.7812H711.656V22.2812H709.656ZM709.656 71.7812C709.656 78.1331 707.774 83.0236 704.101 86.5784L705.492 88.0154C709.633 84.0076 711.656 78.5544 711.656 71.7812H709.656ZM704.098 86.5812C700.449 90.1428 695.501 91.9688 689.141 91.9688V93.9688C695.905 93.9688 701.395 92.0134 705.495 88.0126L704.098 86.5812ZM689.141 91.9688C685.632 91.9688 682.192 91.2199 678.814 89.7119L677.999 91.5381C681.621 93.1551 685.337 93.9688 689.141 93.9688V91.9688ZM678.814 89.7119C675.455 88.2124 672.941 86.1823 671.218 83.6419L669.563 84.7644C671.528 87.6614 674.357 89.9126 677.999 91.5381L678.814 89.7119ZM671.147 84.8573L675.647 79.6542L674.134 78.3458L669.634 83.549L671.147 84.8573ZM674.113 79.6292C678 84.4309 682.822 86.8906 688.531 86.8906V84.8906C683.491 84.8906 679.218 82.7566 675.668 78.3708L674.113 79.6292ZM688.531 86.8906C692.943 86.8906 696.509 85.6432 699.087 83.0305L697.663 81.6257C695.554 83.7631 692.557 84.8906 688.531 84.8906V86.8906ZM699.082 83.0352C701.694 80.4235 702.938 76.7958 702.938 72.2969H700.938C700.938 76.423 699.806 79.4828 697.668 81.621L699.082 83.0352ZM702.938 72.2969V67.9375H700.938V72.2969H702.938ZM701.182 67.2823C697.93 71.0327 693.488 72.9375 687.734 72.9375V74.9375C693.981 74.9375 699.008 72.8423 702.693 68.5927L701.182 67.2823ZM687.734 72.9375C682.113 72.9375 677.591 70.6955 674.089 66.1549L672.505 67.3763C676.378 72.3982 681.481 74.9375 687.734 74.9375V72.9375ZM674.091 66.1582C670.61 61.6058 668.812 55.3294 668.812 47.2188H666.812C666.812 55.6081 668.671 62.3629 672.503 67.3731L674.091 66.1582ZM675.531 48.2031C675.531 54.0461 676.727 58.7759 679.233 62.2844L680.861 61.1219C678.679 58.0678 677.531 53.7976 677.531 48.2031H675.531ZM679.236 62.288C681.779 65.8145 685.371 67.5781 689.891 67.5781V65.5781C685.973 65.5781 683.002 64.0918 680.858 61.1182L679.236 62.288ZM689.891 67.5781C692.781 67.5781 695.341 66.9199 697.53 65.5652C699.718 64.2114 701.477 62.199 702.826 59.5834L701.049 58.6666C699.835 61.0198 698.305 62.7339 696.478 63.8644C694.652 64.9942 692.469 65.5781 689.891 65.5781V67.5781ZM702.938 59.125V35.9688H700.938V59.125H702.938ZM702.814 35.4879C701.418 32.9408 699.644 30.9826 697.476 29.665C695.307 28.3462 692.798 27.7031 689.984 27.7031V29.7031C692.484 29.7031 694.623 30.271 696.438 31.3741C698.254 32.4784 699.801 34.1529 701.061 36.4496L702.814 35.4879ZM689.984 27.7031C685.461 27.7031 681.856 29.4851 679.284 33.0387L680.904 34.2113C683.082 31.2024 686.071 29.7031 689.984 29.7031V27.7031ZM679.284 33.0387C676.732 36.5645 675.531 41.6698 675.531 48.2031H677.531C677.531 41.8614 678.706 37.248 680.904 34.2113L679.284 33.0387ZM724.391 33.7656L723.495 33.3212L723.492 33.3269L724.391 33.7656ZM732.547 24.5781L732.022 23.7267L732.019 23.7288L732.547 24.5781ZM761.234 28.5156L760.487 29.18L760.489 29.1827L761.234 28.5156ZM764.797 61.5156L763.897 61.0799L763.895 61.0829L764.797 61.5156ZM756.688 70.6562L756.161 69.8061L756.158 69.8083L756.688 70.6562ZM727.859 66.7656L727.112 67.43L727.114 67.4327L727.859 66.7656ZM734.094 61.75L733.298 62.3558L733.302 62.3604L734.094 61.75ZM755.094 61.7031L755.892 62.3055L755.895 62.302L755.094 61.7031ZM755 33.6719L754.203 34.2753L754.209 34.2833L755 33.6719ZM722.484 47.1719C722.484 42.336 723.426 38.0202 725.289 34.2043L723.492 33.3269C721.48 37.4485 720.484 42.0702 720.484 47.1719H722.484ZM725.286 34.21C727.18 30.3932 729.777 27.4772 733.075 25.4274L732.019 23.7288C728.379 25.9915 725.539 29.2006 723.495 33.3212L725.286 34.21ZM733.071 25.4295C736.4 23.3788 740.2 22.3438 744.5 22.3438V20.3438C739.863 20.3438 735.694 21.4649 732.022 23.7267L733.071 25.4295ZM744.5 22.3438C751.146 22.3438 756.443 24.6306 760.487 29.18L761.982 27.8513C757.526 22.8381 751.666 20.3438 744.5 20.3438V22.3438ZM760.489 29.1827C764.57 33.7398 766.656 39.8416 766.656 47.5938H768.656C768.656 39.4709 766.461 32.8539 761.979 27.8485L760.489 29.1827ZM766.656 47.5938V48.2031H768.656V47.5938H766.656ZM766.656 48.2031C766.656 53.0092 765.729 57.2948 763.897 61.0799L765.697 61.9514C767.677 57.8615 768.656 53.272 768.656 48.2031H766.656ZM763.895 61.0829C762.099 64.8249 759.523 67.7236 756.161 69.8061L757.214 71.5064C760.915 69.2139 763.745 66.0189 765.698 61.9484L763.895 61.0829ZM756.158 69.8083C752.833 71.8861 748.989 72.9375 744.594 72.9375V74.9375C749.323 74.9375 753.542 73.8014 757.217 71.5042L756.158 69.8083ZM744.594 72.9375C737.98 72.9375 732.681 70.6515 728.604 66.0985L727.114 67.4327C731.6 72.4422 737.457 74.9375 744.594 74.9375V72.9375ZM728.607 66.1013C724.555 61.5428 722.484 55.4704 722.484 47.7812H720.484C720.484 55.8421 722.664 62.4259 727.112 67.43L728.607 66.1013ZM722.484 47.7812V47.1719H720.484V47.7812H722.484ZM729.203 48.2031C729.203 53.9783 730.535 58.7277 733.298 62.3558L734.889 61.1442C732.465 57.9598 731.203 53.6779 731.203 48.2031H729.203ZM733.302 62.3604C736.12 66.0173 739.915 67.8594 744.594 67.8594V65.8594C740.523 65.8594 737.318 64.2952 734.886 61.1396L733.302 62.3604ZM744.594 67.8594C749.305 67.8594 753.104 66.0001 755.892 62.3054L754.295 61.1008C751.896 64.2811 748.695 65.8594 744.594 65.8594V67.8594ZM755.895 62.302C758.663 58.5995 759.984 53.5156 759.984 47.1719H757.984C757.984 53.2657 756.712 57.8693 754.293 61.1043L755.895 62.302ZM759.984 47.1719C759.984 41.4508 758.617 36.7169 755.791 33.0604L754.209 34.2833C756.696 37.5018 757.984 41.7679 757.984 47.1719H759.984ZM755.797 33.0684C752.982 29.3482 749.186 27.4688 744.5 27.4688V29.4688C748.564 29.4688 751.768 31.058 754.203 34.2753L755.797 33.0684ZM744.5 27.4688C739.907 27.4688 736.162 29.3171 733.349 32.9677L734.933 34.1885C737.369 31.0267 740.531 29.4688 744.5 29.4688V27.4688ZM733.349 32.9677C730.538 36.6147 729.203 41.7392 729.203 48.2031H731.203C731.203 41.9795 732.493 37.354 734.933 34.1885L733.349 32.9677ZM816.125 66.9062L816.921 67.5113L816.923 67.5088L816.125 66.9062ZM786.922 67.1406L787.713 66.5293L786.113 64.4569L785.924 67.0688L786.922 67.1406ZM786.5 73V74H787.431L787.497 73.0718L786.5 73ZM778.531 73H777.531V74H778.531V73ZM778.531 1V0H777.531V1H778.531ZM787.203 1H788.203V0H787.203V1ZM787.203 27.8594H786.203V30.6943L787.982 28.4868L787.203 27.8594ZM816.172 28.3281L815.373 28.929L815.375 28.9324L816.172 28.3281ZM787.203 36.6719L786.298 36.2461L786.203 36.4483V36.6719H787.203ZM787.203 58.6094H786.203V58.8454L786.309 59.0566L787.203 58.6094ZM820.469 48.2031C820.469 55.8032 818.723 61.8056 815.327 66.3037L816.923 67.5088C820.652 62.5694 822.469 56.103 822.469 48.2031H820.469ZM815.329 66.3012C811.96 70.7343 807.476 72.9375 801.781 72.9375V74.9375C808.087 74.9375 813.165 72.4532 816.921 67.5113L815.329 66.3012ZM801.781 72.9375C795.643 72.9375 791 70.784 787.713 66.5293L786.13 67.7519C789.844 72.5598 795.107 74.9375 801.781 74.9375V72.9375ZM785.924 67.0688L785.503 72.9282L787.497 73.0718L787.919 67.2124L785.924 67.0688ZM786.5 72H778.531V74H786.5V72ZM779.531 73V1H777.531V73H779.531ZM778.531 2H787.203V0H778.531V2ZM786.203 1V27.8594H788.203V1H786.203ZM787.982 28.4868C791.271 24.4051 795.798 22.3438 801.688 22.3438V20.3438C795.264 20.3438 790.136 22.6262 786.424 27.232L787.982 28.4868ZM801.688 22.3438C807.55 22.3438 812.074 24.5403 815.373 28.929L816.971 27.7273C813.27 22.8035 808.137 20.3438 801.688 20.3438V22.3438ZM815.375 28.9324C818.732 33.3589 820.469 39.4952 820.469 47.4531H822.469C822.469 39.2236 820.674 32.6098 816.969 27.7239L815.375 28.9324ZM820.469 47.4531V48.2031H822.469V47.4531H820.469ZM813.797 47.2188C813.797 41.2027 812.638 36.4058 810.191 32.953L808.559 34.1095C810.674 37.0942 811.797 41.4223 811.797 47.2188H813.797ZM810.191 32.953C807.704 29.4444 804.104 27.7031 799.531 27.7031V29.7031C803.521 29.7031 806.483 31.1806 808.559 34.1095L810.191 32.953ZM799.531 27.7031C796.512 27.7031 793.859 28.4062 791.617 29.8555C789.377 31.3038 787.612 33.4548 786.298 36.2461L788.108 37.0977C789.294 34.5765 790.834 32.7431 792.703 31.5351C794.57 30.3282 796.831 29.7031 799.531 29.7031V27.7031ZM786.203 36.6719V58.6094H788.203V36.6719H786.203ZM786.309 59.0566C787.701 61.8404 789.51 63.9839 791.761 65.4276C794.014 66.8733 796.649 67.5781 799.625 67.5781V65.5781C796.976 65.5781 794.728 64.9548 792.841 63.7442C790.951 62.5317 789.362 60.6909 788.098 58.1622L786.309 59.0566ZM799.625 67.5781C804.085 67.5781 807.629 65.8284 810.14 62.3335L808.516 61.1665C806.402 64.1091 803.478 65.5781 799.625 65.5781V67.5781ZM810.14 62.3335C812.63 58.8675 813.797 53.7759 813.797 47.2188H811.797C811.797 53.5991 810.651 58.195 808.516 61.1665L810.14 62.3335ZM863.75 67.9844L864.749 67.947L864.653 65.3785L862.988 67.3366L863.75 67.9844ZM836.516 69.25L835.769 69.9153L835.776 69.923L836.516 69.25ZM832.25 55.2812H831.25L831.25 55.2863L832.25 55.2812ZM832.25 22.2812V21.2812H831.25V22.2812H832.25ZM840.922 22.2812H841.922V21.2812H840.922V22.2812ZM863.516 59.1719L864.43 59.5769L864.516 59.3835V59.1719H863.516ZM863.516 22.2812V21.2812H862.516V22.2812H863.516ZM872.188 22.2812H873.188V21.2812H872.188V22.2812ZM872.188 73V74H873.188V73H872.188ZM863.938 73L862.938 73.0374L862.974 74H863.938V73ZM862.988 67.3366C859.85 71.027 855.209 72.9375 848.891 72.9375V74.9375C855.635 74.9375 860.9 72.8792 864.512 68.6322L862.988 67.3366ZM848.891 72.9375C843.682 72.9375 839.86 71.4389 837.255 68.577L835.776 69.923C838.859 73.3111 843.287 74.9375 848.891 74.9375V72.9375ZM837.262 68.5847C834.672 65.678 833.281 61.2979 833.25 55.2762L831.25 55.2863C831.282 61.5771 832.734 66.5095 835.769 69.9153L837.262 68.5847ZM833.25 55.2812V22.2812H831.25V55.2812H833.25ZM832.25 23.2812H840.922V21.2812H832.25V23.2812ZM839.922 22.2812V55.0469H841.922V22.2812H839.922ZM839.922 55.0469C839.922 59.0003 840.721 62.151 842.49 64.3261C844.29 66.5409 846.957 67.5781 850.297 67.5781V65.5781C847.387 65.5781 845.366 64.6935 844.042 63.0645C842.685 61.3959 841.922 58.7809 841.922 55.0469H839.922ZM850.297 67.5781C853.729 67.5781 856.667 66.9391 859.059 65.599C861.464 64.2514 863.255 62.2288 864.43 59.5769L862.601 58.7668C861.589 61.0524 860.083 62.733 858.082 63.8542C856.067 64.9828 853.49 65.5781 850.297 65.5781V67.5781ZM864.516 59.1719V22.2812H862.516V59.1719H864.516ZM863.516 23.2812H872.188V21.2812H863.516V23.2812ZM871.188 22.2812V73H873.188V22.2812H871.188ZM872.188 72H863.938V74H872.188V72ZM864.937 72.9626L864.749 67.947L862.751 68.0217L862.938 73.0374L864.937 72.9626ZM888.828 28.4688L889.616 29.0845L889.618 29.082L888.828 28.4688ZM917.422 27.4375L916.661 28.0868L918.422 30.1487V27.4375H917.422ZM917.422 1V0H916.422V1H917.422ZM926.094 1H927.094V0H926.094V1ZM926.094 73V74H927.094V73H926.094ZM918.125 73L917.128 73.0774L917.2 74H918.125V73ZM917.703 67.5625L918.7 67.4851L918.507 64.996L916.928 66.9302L917.703 67.5625ZM888.828 66.7188L888.034 67.327L888.037 67.3302L888.828 66.7188ZM917.422 59.1719L918.312 59.6281L918.422 59.4133V59.1719H917.422ZM917.422 35.875H918.422V35.6212L918.301 35.3982L917.422 35.875ZM884.297 47.2188C884.297 39.5934 886.102 33.5809 889.616 29.0845L888.04 27.853C884.179 32.7941 882.297 39.2816 882.297 47.2188H884.297ZM889.618 29.082C893.118 24.5738 897.655 22.3438 903.312 22.3438V20.3438C897.032 20.3438 891.913 22.8637 888.038 27.8555L889.618 29.082ZM903.312 22.3438C908.994 22.3438 913.405 24.2733 916.661 28.0868L918.182 26.7882C914.501 22.4767 909.506 20.3438 903.312 20.3438V22.3438ZM918.422 27.4375V1H916.422V27.4375H918.422ZM917.422 2H926.094V0H917.422V2ZM925.094 1V73H927.094V1H925.094ZM926.094 72H918.125V74H926.094V72ZM919.122 72.9226L918.7 67.4851L916.706 67.6399L917.128 73.0774L919.122 72.9226ZM916.928 66.9302C913.675 70.9159 909.149 72.9375 903.219 72.9375V74.9375C909.663 74.9375 914.793 72.7091 918.478 68.1948L916.928 66.9302ZM903.219 72.9375C897.666 72.9375 893.157 70.6848 889.619 66.1073L888.037 67.3302C891.937 72.3777 897.022 74.9375 903.219 74.9375V72.9375ZM889.622 66.1105C886.101 61.516 884.297 55.4669 884.297 47.875H882.297C882.297 55.7831 884.18 62.2965 888.034 67.327L889.622 66.1105ZM884.297 47.875V47.2188H882.297V47.875H884.297ZM890.969 48.2031C890.969 54.0775 892.18 58.8125 894.724 62.2931L896.339 61.1131C894.132 58.0938 892.969 53.8288 892.969 48.2031H890.969ZM894.724 62.2931C897.296 65.8128 900.884 67.5781 905.375 67.5781V65.5781C901.491 65.5781 898.517 64.0935 896.339 61.1131L894.724 62.2931ZM905.375 67.5781C908.279 67.5781 910.845 66.9249 913.035 65.5784C915.225 64.2324 916.978 62.2306 918.312 59.6281L916.532 58.7157C915.335 61.0507 913.814 62.752 911.988 63.8747C910.162 64.997 907.971 65.5781 905.375 65.5781V67.5781ZM918.422 59.1719V35.875H916.422V59.1719H918.422ZM918.301 35.3982C916.933 32.8775 915.173 30.9406 913.003 29.6386C910.832 28.3362 908.309 27.7031 905.469 27.7031V29.7031C908.004 29.7031 910.16 30.2653 911.974 31.3536C913.788 32.4422 915.317 34.0913 916.543 36.3518L918.301 35.3982ZM905.469 27.7031C900.917 27.7031 897.295 29.4829 894.721 33.0387L896.341 34.2113C898.518 31.2046 901.521 29.7031 905.469 29.7031V27.7031ZM894.721 33.0387C892.169 36.5645 890.969 41.6698 890.969 48.2031H892.969C892.969 41.8614 894.143 37.248 896.341 34.2113L894.721 33.0387ZM943.859 67.1875L943.135 67.8769L943.137 67.8794L943.859 67.1875ZM940.25 34L939.351 33.5613L939.35 33.5643L940.25 34ZM948.312 24.7188L948.855 25.5589L948.857 25.5577L948.312 24.7188ZM980.422 50.125V51.125H981.422V50.125H980.422ZM946.062 50.125V49.125H945.037L945.063 50.15L946.062 50.125ZM950.422 62.2656L949.678 62.9342L949.685 62.942L950.422 62.2656ZM974.469 60.0156L975.083 59.2266L974.291 58.6099L973.677 59.4042L974.469 60.0156ZM979.766 64.1406L980.604 64.686L981.105 63.9161L980.38 63.3516L979.766 64.1406ZM950.75 32.3125L951.479 32.9968L951.483 32.9923L950.75 32.3125ZM946.344 43L945.351 42.8785L945.214 44H946.344V43ZM971.75 43V44H972.75V43H971.75ZM971.75 42.3438H972.75V42.3154L972.748 42.2871L971.75 42.3438ZM968.188 32.125L967.434 32.7821L967.438 32.7869L968.188 32.125ZM960.641 72.9375C954.007 72.9375 948.685 70.7774 944.581 66.4956L943.137 67.8794C947.659 72.5976 953.524 74.9375 960.641 74.9375V72.9375ZM944.584 66.4981C940.484 62.1902 938.391 56.4096 938.391 49.0469H936.391C936.391 56.8092 938.61 63.1223 943.135 67.8769L944.584 66.4981ZM938.391 49.0469V47.4531H936.391V49.0469H938.391ZM938.391 47.4531C938.391 42.5501 939.319 38.2184 941.15 34.4357L939.35 33.5643C937.369 37.6566 936.391 42.2936 936.391 47.4531H938.391ZM941.149 34.4387C943.013 30.6203 945.583 27.671 948.855 25.5589L947.77 23.8786C944.167 26.204 941.362 29.4422 939.351 33.5613L941.149 34.4387ZM948.857 25.5577C952.168 23.41 955.73 22.3438 959.562 22.3438V20.3438C955.333 20.3438 951.395 21.5275 947.768 23.8798L948.857 25.5577ZM959.562 22.3438C965.914 22.3438 970.738 24.4229 974.172 28.5033L975.703 27.2154C971.825 22.6083 966.398 20.3438 959.562 20.3438V22.3438ZM974.172 28.5033C977.624 32.6035 979.422 38.5589 979.422 46.5156H981.422C981.422 38.2848 979.564 31.8027 975.703 27.2154L974.172 28.5033ZM979.422 46.5156V50.125H981.422V46.5156H979.422ZM980.422 49.125H946.062V51.125H980.422V49.125ZM945.063 50.15C945.193 55.3378 946.707 59.6291 949.678 62.9342L951.166 61.5971C948.574 58.7147 947.182 54.9122 947.062 50.1L945.063 50.15ZM949.685 62.942C952.695 66.2193 956.529 67.8594 961.109 67.8594V65.8594C957.065 65.8594 953.774 64.437 951.158 61.5892L949.685 62.942ZM961.109 67.8594C964.307 67.8594 967.086 67.2062 969.398 65.8463L968.384 64.1224C966.445 65.2626 964.036 65.8594 961.109 65.8594V67.8594ZM969.398 65.8463C971.639 64.528 973.593 62.7846 975.26 60.6271L973.677 59.4042C972.157 61.3717 970.393 62.9407 968.384 64.1224L969.398 65.8463ZM973.854 60.8046L979.151 64.9296L980.38 63.3516L975.083 59.2266L973.854 60.8046ZM978.927 63.5952C974.881 69.8136 968.839 72.9375 960.641 72.9375V74.9375C969.442 74.9375 976.15 71.5301 980.604 64.686L978.927 63.5952ZM959.562 27.4688C955.785 27.4688 952.581 28.8656 950.017 31.6327L951.483 32.9923C953.669 30.6344 956.34 29.4688 959.562 29.4688V27.4688ZM950.021 31.6283C947.459 34.3587 945.931 38.1435 945.351 42.8785L947.336 43.1215C947.882 38.669 949.291 35.3288 951.479 32.9967L950.021 31.6283ZM946.344 44H971.75V42H946.344V44ZM972.75 43V42.3438H970.75V43H972.75ZM972.748 42.2871C972.49 37.7398 971.257 34.0906 968.937 31.4631L967.438 32.7869C969.368 34.9719 970.51 38.1352 970.752 42.4004L972.748 42.2871ZM968.941 31.4679C966.602 28.7847 963.437 27.4688 959.562 27.4688V29.4688C962.938 29.4688 965.523 30.5903 967.434 32.7821L968.941 31.4679Z" fill="white"/>
</svg>
