<svg width="36" height="36" viewBox="0 0 36 36" fill="none" xmlns="http://www.w3.org/2000/svg">
<g opacity="0.3">
<path fill-rule="evenodd" clip-rule="evenodd" d="M18 3C9.7155 3 3 9.7155 3 18C3 26.2845 9.7155 33 18 33C26.2845 33 33 26.2845 33 18C33 9.7155 26.2845 3 18 3ZM0 18C0 8.05875 8.05875 0 18 0C27.9412 0 36 8.05875 36 18C36 27.9412 27.9412 36 18 36C8.05875 36 0 27.9412 0 18Z" fill="#353636"/>
<path fill-rule="evenodd" clip-rule="evenodd" d="M14.3873 34.1032C14.2425 33.9157 14.2425 32.2477 14.3873 29.0985C12.8333 29.1525 11.8523 29.0445 11.442 28.7752C10.827 28.3702 10.212 27.1252 9.66676 26.247C9.12076 25.3687 7.90951 25.23 7.42051 25.0335C6.93151 24.837 6.80851 24.0375 8.76826 24.642C10.728 25.2472 10.8233 26.8957 11.442 27.2805C12.06 27.666 13.5383 27.498 14.2088 27.189C14.8785 26.88 14.829 25.731 14.9483 25.2757C15.0998 24.8505 14.5673 24.756 14.5553 24.753C13.9013 24.753 10.4655 24.0052 9.52126 20.6782C8.57776 17.3505 9.79351 15.1755 10.4423 14.2402C10.8743 13.6177 10.836 12.2887 10.3275 10.2555C12.1748 10.0192 13.6005 10.6005 14.6048 12C14.6063 12.0075 15.921 11.2177 18 11.2177C20.079 11.2177 20.8163 11.8612 21.3855 12C21.9548 12.1387 22.41 9.5505 25.9253 10.2555C25.191 11.6977 24.5768 13.5 25.0455 14.2402C25.515 14.9812 27.3555 17.3362 26.2245 20.6782C25.4708 22.9057 23.9895 24.264 21.7785 24.753C21.525 24.8332 21.3983 24.9637 21.3983 25.1437C21.3983 25.4137 21.741 25.4437 22.2345 26.709C22.5638 27.552 22.587 29.961 22.3058 33.9352C21.5933 34.1167 21.0383 34.2382 20.6408 34.3012C19.938 34.4115 19.1753 34.4737 18.4253 34.497C17.6753 34.521 17.4143 34.5187 16.3778 34.422C15.7078 34.361 15.0428 34.2545 14.3873 34.1032Z" fill="#353636"/>
</g>
</svg>
