<svg width="36" height="36" viewBox="0 0 36 36" fill="none" xmlns="http://www.w3.org/2000/svg">
<path d="M18.0141 2.68242C26.7082 2.6789 33.75 9.71719 33.75 18.4043C33.75 25.2738 29.3449 31.1133 23.2102 33.2578C22.384 33.4652 22.5105 32.8781 22.5105 32.4774V29.7527C27.2812 30.3117 27.4746 27.1547 27.7945 26.6273C28.4414 25.5234 29.9707 25.2422 29.5137 24.7148C28.4273 24.1559 27.3199 24.8555 26.0367 26.7504C25.1086 28.125 23.298 27.893 22.3805 27.6645C22.1801 26.8383 21.7512 26.1 21.1605 25.527C26.1035 24.641 28.1637 21.6246 28.1637 18.0387C28.1637 16.2984 27.5906 14.6988 26.4656 13.4086C27.1828 11.2816 26.3988 9.46055 26.2934 9.18984C24.2508 9.00703 22.1273 10.6523 21.9621 10.7824C20.802 10.4695 19.4766 10.3043 17.993 10.3043C16.5023 10.3043 15.1734 10.4766 14.0027 10.793C13.6055 10.4906 11.6367 9.07734 9.73828 9.24961C9.63633 9.52031 8.86992 11.2992 9.54492 13.398C8.40586 14.6918 7.82578 16.3055 7.82578 18.0492C7.82578 21.6422 9.9 24.6621 14.857 25.534C14.4324 25.9515 14.0953 26.4495 13.8653 26.9988C13.6354 27.5481 13.5171 28.1377 13.5176 28.7332V32.6883C13.4895 33.0047 13.5176 33.3176 12.9902 33.3176C6.76406 31.2188 2.28164 25.3371 2.28164 18.4078C2.28164 9.71719 9.32695 2.68242 18.0141 2.68242V2.68242Z" fill="#353636"/>
</svg>
