<svg width="106" height="53" viewBox="0 0 106 53" fill="none" xmlns="http://www.w3.org/2000/svg">
<circle cx="80.5" cy="27.5" r="25.5" fill="#353636"/>
<path d="M6.48 29.712C6.48 28.968 6.552 28.236 6.696 27.516C6.84 26.796 7.08 26.16 7.416 25.608C7.776 25.056 8.244 24.612 8.82 24.276C9.396 23.916 10.116 23.736 10.98 23.736C11.844 23.736 12.564 23.916 13.14 24.276C13.74 24.612 14.208 25.056 14.544 25.608C14.904 26.16 15.156 26.796 15.3 27.516C15.444 28.236 15.516 28.968 15.516 29.712C15.516 30.456 15.444 31.188 15.3 31.908C15.156 32.604 14.904 33.24 14.544 33.816C14.208 34.368 13.74 34.812 13.14 35.148C12.564 35.484 11.844 35.652 10.98 35.652C10.116 35.652 9.396 35.484 8.82 35.148C8.244 34.812 7.776 34.368 7.416 33.816C7.08 33.24 6.84 32.604 6.696 31.908C6.552 31.188 6.48 30.456 6.48 29.712ZM1.368 29.712C1.368 31.2 1.596 32.544 2.052 33.744C2.508 34.944 3.156 35.976 3.996 36.84C4.836 37.68 5.844 38.328 7.02 38.784C8.196 39.24 9.516 39.468 10.98 39.468C12.444 39.468 13.764 39.24 14.94 38.784C16.14 38.328 17.16 37.68 18 36.84C18.84 35.976 19.488 34.944 19.944 33.744C20.4 32.544 20.628 31.2 20.628 29.712C20.628 28.224 20.4 26.88 19.944 25.68C19.488 24.456 18.84 23.424 18 22.584C17.16 21.72 16.14 21.06 14.94 20.604C13.764 20.124 12.444 19.884 10.98 19.884C9.516 19.884 8.196 20.124 7.02 20.604C5.844 21.06 4.836 21.72 3.996 22.584C3.156 23.424 2.508 24.456 2.052 25.68C1.596 26.88 1.368 28.224 1.368 29.712ZM37.1638 29.64C37.1638 30.408 37.0918 31.152 36.9478 31.872C36.8038 32.592 36.5638 33.24 36.2278 33.816C35.8918 34.368 35.4358 34.812 34.8598 35.148C34.3078 35.484 33.6118 35.652 32.7718 35.652C31.9798 35.652 31.2958 35.484 30.7198 35.148C30.1678 34.788 29.6998 34.332 29.3158 33.78C28.9558 33.204 28.6918 32.556 28.5238 31.836C28.3558 31.116 28.2718 30.396 28.2718 29.676C28.2718 28.908 28.3438 28.176 28.4878 27.48C28.6558 26.76 28.9078 26.124 29.2438 25.572C29.6038 25.02 30.0718 24.576 30.6478 24.24C31.2238 23.904 31.9318 23.736 32.7718 23.736C33.6118 23.736 34.3078 23.904 34.8598 24.24C35.4118 24.576 35.8558 25.02 36.1918 25.572C36.5518 26.1 36.8038 26.724 36.9478 27.444C37.0918 28.14 37.1638 28.872 37.1638 29.64ZM37.2358 36.624V39H42.0958V13.296H36.9838V22.656H36.9118C36.3358 21.744 35.5438 21.06 34.5358 20.604C33.5518 20.124 32.5078 19.884 31.4038 19.884C30.0358 19.884 28.8358 20.16 27.8038 20.712C26.7718 21.24 25.9078 21.948 25.2118 22.836C24.5398 23.724 24.0238 24.756 23.6638 25.932C23.3278 27.084 23.1598 28.284 23.1598 29.532C23.1598 30.828 23.3278 32.076 23.6638 33.276C24.0238 34.476 24.5398 35.544 25.2118 36.48C25.9078 37.392 26.7838 38.124 27.8398 38.676C28.8958 39.204 30.1198 39.468 31.5118 39.468C32.7358 39.468 33.8278 39.252 34.7878 38.82C35.7718 38.364 36.5638 37.632 37.1638 36.624H37.2358ZM58.4876 27.696H50.1716C50.1956 27.336 50.2676 26.928 50.3876 26.472C50.5316 26.016 50.7596 25.584 51.0716 25.176C51.4076 24.768 51.8396 24.432 52.3676 24.168C52.9196 23.88 53.6036 23.736 54.4196 23.736C55.6676 23.736 56.5916 24.072 57.1916 24.744C57.8156 25.416 58.2476 26.4 58.4876 27.696ZM50.1716 30.936H63.5996C63.6956 29.496 63.5756 28.116 63.2396 26.796C62.9036 25.476 62.3516 24.3 61.5836 23.268C60.8396 22.236 59.8796 21.42 58.7036 20.82C57.5276 20.196 56.1476 19.884 54.5636 19.884C53.1476 19.884 51.8516 20.136 50.6756 20.64C49.5236 21.144 48.5276 21.84 47.6876 22.728C46.8476 23.592 46.1996 24.624 45.7436 25.824C45.2876 27.024 45.0596 28.32 45.0596 29.712C45.0596 31.152 45.2756 32.472 45.7076 33.672C46.1636 34.872 46.7996 35.904 47.6156 36.768C48.4316 37.632 49.4276 38.304 50.6036 38.784C51.7796 39.24 53.0996 39.468 54.5636 39.468C56.6756 39.468 58.4756 38.988 59.9636 38.028C61.4516 37.068 62.5556 35.472 63.2756 33.24H58.7756C58.6076 33.816 58.1516 34.368 57.4076 34.896C56.6636 35.4 55.7756 35.652 54.7436 35.652C53.3036 35.652 52.1996 35.28 51.4316 34.536C50.6636 33.792 50.2436 32.592 50.1716 30.936ZM66.6315 20.388V39H71.7435V30.612C71.7435 29.772 71.8275 28.992 71.9955 28.272C72.1635 27.552 72.4395 26.928 72.8235 26.4C73.2315 25.848 73.7595 25.416 74.4075 25.104C75.0555 24.792 75.8475 24.636 76.7835 24.636C77.0955 24.636 77.4195 24.66 77.7555 24.708C78.0915 24.732 78.3795 24.768 78.6195 24.816V20.064C78.2115 19.944 77.8395 19.884 77.5035 19.884C76.8555 19.884 76.2315 19.98 75.6315 20.172C75.0315 20.364 74.4675 20.64 73.9395 21C73.4115 21.336 72.9435 21.756 72.5355 22.26C72.1275 22.74 71.8035 23.268 71.5635 23.844H71.4915V20.388H66.6315ZM80.4077 26.112C80.4797 24.912 80.7797 23.916 81.3077 23.124C81.8357 22.332 82.5077 21.696 83.3237 21.216C84.1397 20.736 85.0517 20.4 86.0597 20.208C87.0917 19.992 88.1237 19.884 89.1557 19.884C90.0917 19.884 91.0397 19.956 91.9997 20.1C92.9597 20.22 93.8357 20.472 94.6277 20.856C95.4197 21.24 96.0677 21.78 96.5717 22.476C97.0757 23.148 97.3277 24.048 97.3277 25.176V34.86C97.3277 35.7 97.3757 36.504 97.4717 37.272C97.5677 38.04 97.7357 38.616 97.9757 39H92.7917C92.6957 38.712 92.6117 38.424 92.5397 38.136C92.4917 37.824 92.4557 37.512 92.4317 37.2C91.6157 38.04 90.6557 38.628 89.5517 38.964C88.4477 39.3 87.3197 39.468 86.1677 39.468C85.2797 39.468 84.4517 39.36 83.6837 39.144C82.9157 38.928 82.2437 38.592 81.6677 38.136C81.0917 37.68 80.6357 37.104 80.2997 36.408C79.9877 35.712 79.8317 34.884 79.8317 33.924C79.8317 32.868 80.0117 32.004 80.3717 31.332C80.7557 30.636 81.2357 30.084 81.8117 29.676C82.4117 29.268 83.0837 28.968 83.8277 28.776C84.5957 28.56 85.3637 28.392 86.1317 28.272C86.8997 28.152 87.6557 28.056 88.3997 27.984C89.1437 27.912 89.8037 27.804 90.3797 27.66C90.9557 27.516 91.4117 27.312 91.7477 27.048C92.0837 26.76 92.2397 26.352 92.2157 25.824C92.2157 25.272 92.1197 24.84 91.9277 24.528C91.7597 24.192 91.5197 23.94 91.2077 23.772C90.9197 23.58 90.5717 23.46 90.1637 23.412C89.7797 23.34 89.3597 23.304 88.9037 23.304C87.8957 23.304 87.1037 23.52 86.5277 23.952C85.9517 24.384 85.6157 25.104 85.5197 26.112H80.4077ZM92.2157 29.892C91.9997 30.084 91.7237 30.24 91.3877 30.36C91.0757 30.456 90.7277 30.54 90.3437 30.612C89.9837 30.684 89.5997 30.744 89.1917 30.792C88.7837 30.84 88.3757 30.9 87.9677 30.972C87.5837 31.044 87.1997 31.14 86.8157 31.26C86.4557 31.38 86.1317 31.548 85.8437 31.764C85.5797 31.956 85.3637 32.208 85.1957 32.52C85.0277 32.832 84.9437 33.228 84.9437 33.708C84.9437 34.164 85.0277 34.548 85.1957 34.86C85.3637 35.172 85.5917 35.424 85.8797 35.616C86.1677 35.784 86.5037 35.904 86.8877 35.976C87.2717 36.048 87.6677 36.084 88.0757 36.084C89.0837 36.084 89.8637 35.916 90.4157 35.58C90.9677 35.244 91.3757 34.848 91.6397 34.392C91.9037 33.912 92.0597 33.432 92.1077 32.952C92.1797 32.472 92.2157 32.088 92.2157 31.8V29.892Z" fill="white"/>
<path d="M93.2 15.36C93.04 15.696 92.848 16.016 92.624 16.32C92.4 16.624 92.144 16.896 91.856 17.136C91.584 17.36 91.272 17.544 90.92 17.688C90.568 17.816 90.192 17.88 89.792 17.88C89.296 17.88 88.84 17.8 88.424 17.64C88.024 17.464 87.624 17.272 87.224 17.064C86.84 16.856 86.432 16.672 86 16.512C85.584 16.336 85.112 16.248 84.584 16.248C84.312 16.248 84.072 16.304 83.864 16.416C83.672 16.512 83.488 16.64 83.312 16.8C83.152 16.96 83.008 17.144 82.88 17.352C82.768 17.56 82.664 17.768 82.568 17.976L81.2 15.984C81.312 15.648 81.48 15.328 81.704 15.024C81.928 14.72 82.184 14.456 82.472 14.232C82.776 13.992 83.104 13.808 83.456 13.68C83.824 13.536 84.208 13.464 84.608 13.464C84.992 13.464 85.408 13.552 85.856 13.728C86.304 13.888 86.752 14.072 87.2 14.28C87.648 14.488 88.088 14.68 88.52 14.856C88.952 15.016 89.352 15.096 89.72 15.096C89.96 15.096 90.176 15.048 90.368 14.952C90.576 14.84 90.76 14.704 90.92 14.544C91.096 14.384 91.256 14.2 91.4 13.992C91.544 13.784 91.688 13.576 91.832 13.368L93.2 15.36Z" fill="white"/>
</svg>
